<?xml version="1.0" standalone="no"?>
<!DOCTYPE svg PUBLIC "-//W3C//DTD SVG 20010904//EN"
 "http://www.w3.org/TR/2001/REC-SVG-20010904/DTD/svg10.dtd">
<svg version="1.0" xmlns="http://www.w3.org/2000/svg"
 width="512.000000pt" height="512.000000pt" viewBox="0 0 512.000000 512.000000"
 preserveAspectRatio="xMidYMid meet">
<metadata>
Created by potrace 1.16, written by Peter Selinger 2001-2019
</metadata>
<g transform="translate(0.000000,512.000000) scale(0.100000,-0.100000)"
fill="#000000" stroke="none">
<path d="M2338 4769 c3 -27 8 -37 14 -31 11 11 1 72 -11 72 -3 0 -5 -18 -3
-41z"/>
<path d="M2244 4775 c-3 -14 -1 -39 6 -56 9 -20 11 -61 7 -127 -5 -93 -3 -100
28 -177 36 -88 59 -217 32 -180 -54 76 -130 222 -131 254 -1 26 -6 37 -19 39
-24 5 -33 -25 -14 -46 9 -9 15 -19 15 -22 -1 -5 14 -30 107 -187 50 -84 55
-98 55 -150 -1 -32 -7 -87 -13 -123 l-13 -65 -28 54 c-20 39 -34 91 -48 180
-11 69 -24 133 -30 141 -6 10 -7 0 -3 -30 15 -101 31 -230 29 -230 -9 0 -68
107 -83 152 -23 67 -41 102 -48 94 -3 -2 7 -37 22 -77 24 -63 27 -81 22 -150
-7 -107 -17 -116 -39 -38 -20 71 -24 228 -8 339 13 94 46 248 65 299 15 44 12
105 -6 117 -10 6 -10 -10 0 -46 5 -16 1 -43 -10 -75 -10 -27 -28 -97 -39 -155
-12 -57 -23 -106 -25 -108 -7 -7 -55 155 -55 188 -1 49 -25 146 -33 133 -4 -6
1 -32 9 -57 11 -32 13 -54 7 -67 -7 -18 -13 -13 -46 42 -20 35 -38 68 -40 73
-3 6 -8 8 -12 4 -4 -4 17 -47 48 -95 51 -81 110 -233 95 -248 -8 -8 -120 44
-146 68 -37 35 -53 73 -59 148 -3 38 -10 69 -14 69 -12 0 -11 -21 6 -114 10
-56 21 -86 38 -105 23 -24 27 -58 6 -45 -33 20 -4 -146 40 -235 17 -34 29 -61
27 -61 -2 0 -34 13 -70 30 -77 34 -72 15 -56 228 7 93 7 139 0 153 -18 33 -33
10 -28 -43 6 -57 -3 -53 -37 18 -23 48 -23 48 -4 72 20 26 25 57 10 66 -15 10
-37 -3 -51 -29 -11 -20 -9 -31 15 -82 15 -32 38 -70 52 -84 20 -22 24 -35 21
-75 l-3 -49 -48 93 c-26 50 -49 92 -52 92 -12 0 10 -60 51 -141 46 -90 50
-105 34 -129 -8 -12 -16 -8 -45 25 -21 25 -34 34 -35 25 0 -9 18 -34 40 -55
39 -39 40 -40 40 -112 0 -40 -4 -73 -9 -73 -4 0 -20 9 -35 21 -14 11 -24 14
-21 7 3 -7 18 -22 34 -32 27 -19 28 -21 23 -90 -8 -118 -15 -118 -46 -5 -15
57 -45 149 -68 204 -49 123 -58 195 -34 293 10 38 27 84 38 103 21 34 35 135
17 124 -5 -4 -9 -30 -10 -58 -1 -39 -3 -46 -8 -27 -7 24 -8 23 -13 -10 -3 -19
-14 -55 -23 -80 -9 -25 -19 -80 -22 -123 l-6 -79 -26 34 c-36 47 -90 104 -91
97 0 -4 25 -40 56 -80 31 -40 60 -85 64 -100 l8 -28 -38 24 c-21 13 -66 36
-101 50 -35 15 -77 39 -94 55 -16 15 -41 33 -53 40 -26 13 -46 4 -21 -10 9 -5
27 -18 40 -29 l24 -20 -37 6 c-25 4 -38 2 -38 -6 0 -6 15 -11 33 -11 61 0 287
-110 301 -147 5 -12 0 -13 -26 -7 -29 6 -31 5 -19 -10 7 -9 20 -16 27 -16 28
0 54 -41 78 -122 14 -46 23 -93 20 -105 -4 -13 -2 -23 4 -23 11 0 55 -155 49
-173 -4 -14 -52 50 -108 144 -33 55 -41 81 -52 159 -7 55 -18 95 -25 98 -14 4
-17 -39 -3 -53 4 -6 11 -32 14 -60 l6 -50 -28 33 c-15 17 -38 66 -51 108 -13
42 -26 72 -27 68 -3 -9 28 -123 42 -156 5 -13 -9 -9 -62 17 -37 18 -85 37
-106 40 -58 9 -37 -10 26 -24 30 -6 63 -18 73 -26 18 -13 17 -14 -16 -16 -21
-1 -27 -4 -15 -6 20 -5 100 -96 124 -140 14 -27 31 -30 31 -7 0 8 -27 43 -61
76 -45 46 -57 64 -48 72 8 8 13 8 16 -1 3 -7 13 -13 22 -13 31 0 71 -40 103
-104 17 -33 50 -89 74 -123 24 -35 41 -63 38 -63 -3 0 -23 10 -46 21 -23 12
-71 32 -107 46 -96 36 -131 76 -150 176 l-9 42 -1 -42 c-1 -23 4 -54 10 -70
l10 -28 -25 25 c-15 13 -37 46 -51 74 -13 28 -24 42 -25 32 0 -36 45 -108 87
-139 24 -17 43 -32 43 -33 0 -4 -75 23 -100 36 -24 13 -59 81 -90 175 -12 39
-26 74 -31 79 -14 16 -10 30 5 17 17 -14 33 3 42 46 4 20 1 33 -10 42 -22 18
-44 -1 -48 -42 -4 -32 -4 -32 -11 8 -16 82 -27 104 -21 40 3 -33 16 -85 29
-115 13 -30 30 -81 38 -112 l15 -58 -56 44 c-76 59 -106 92 -130 146 -11 25
-21 37 -21 27 -2 -48 81 -148 180 -216 19 -13 42 -33 51 -46 l17 -23 -77 22
c-43 11 -91 29 -106 39 -34 23 -84 100 -92 144 -3 18 -10 35 -14 38 -12 8 9
-76 31 -122 12 -24 32 -52 47 -63 l26 -21 -45 7 c-24 3 -72 19 -105 35 -34 16
-65 29 -68 29 -3 0 -6 -14 -6 -30 0 -36 27 -52 45 -27 11 16 15 16 50 1 21 -8
77 -21 124 -28 93 -14 435 -128 534 -178 90 -45 134 -92 184 -192 23 -49 43
-96 43 -103 0 -27 -58 29 -75 73 -19 51 -65 94 -127 119 -24 10 -55 33 -69 51
-13 18 -46 50 -72 70 -38 29 -51 34 -57 24 -4 -7 -6 -19 -3 -27 4 -11 8 -11
17 2 10 14 19 8 68 -43 43 -45 60 -72 72 -113 25 -89 29 -109 19 -109 -5 0
-36 22 -68 48 -42 33 -85 85 -144 170 -46 68 -86 120 -89 117 -3 -2 29 -56 71
-119 l76 -114 -59 21 c-59 22 -60 22 -92 96 -17 41 -33 70 -35 64 -2 -5 8 -36
22 -67 14 -32 24 -60 23 -62 -7 -6 -89 36 -93 48 -2 7 -10 36 -18 63 l-15 50
3 -61 4 -61 -65 24 c-36 13 -63 19 -60 14 3 -5 35 -19 71 -32 l65 -23 0 -80
c1 -45 7 -117 15 -161 8 -43 12 -81 9 -84 -2 -3 -29 21 -59 51 -92 96 -149
236 -166 408 -12 128 -17 144 -19 65 l-1 -60 -16 48 c-9 26 -18 46 -20 44 -6
-7 69 -299 88 -345 25 -57 24 -58 -13 -27 -17 14 -51 36 -75 47 -59 28 -94 72
-164 206 l-58 113 29 11 c32 11 40 28 14 28 -8 0 -25 -5 -36 -11 -31 -16 -43
9 -18 36 24 25 25 54 5 81 -15 19 -15 19 -30 0 -18 -24 -19 -40 -4 -68 11 -20
10 -20 -12 -4 -36 25 -69 21 -69 -9 0 -27 25 -45 63 -45 19 0 33 -12 57 -50
18 -28 31 -53 28 -55 -2 -3 -20 7 -39 21 -44 33 -89 57 -89 47 0 -5 27 -26 60
-47 75 -49 89 -65 132 -148 30 -57 33 -68 19 -72 -9 -2 -38 -10 -66 -16 -27
-7 -54 -17 -59 -21 -15 -13 2 -11 79 10 l69 19 70 -40 c39 -21 79 -48 90 -58
18 -17 16 -18 -50 -30 -38 -6 -111 -14 -163 -18 -61 -5 -96 -11 -99 -19 -5
-18 121 -17 228 2 47 8 93 15 102 15 9 0 59 -37 110 -82 51 -44 95 -83 97 -85
3 -1 -17 3 -42 11 -26 8 -47 12 -47 10 0 -3 28 -17 63 -33 42 -19 72 -41 92
-67 16 -21 56 -67 88 -103 31 -35 56 -65 54 -67 -1 -2 -21 3 -42 11 -22 8 -48
14 -57 15 -10 0 -34 14 -54 32 l-36 32 24 18 c25 19 18 24 -11 8 -15 -8 -21
-3 -36 30 -10 22 -27 47 -38 57 -17 15 -16 10 6 -28 32 -54 32 -56 10 -61 -14
-3 -12 -7 11 -18 16 -8 36 -26 45 -39 15 -23 15 -23 -19 -16 -93 19 -154 104
-186 260 -10 44 -21 85 -27 90 -6 7 -7 0 -3 -18 3 -15 9 -48 13 -73 6 -45 5
-46 -18 -39 -13 4 -41 25 -62 48 -33 35 -35 37 -17 10 20 -31 20 -33 3 -34
-10 0 10 -12 45 -26 34 -15 62 -32 62 -38 0 -7 13 -38 28 -69 28 -54 28 -73 2
-41 -7 8 -19 15 -27 15 -29 0 -7 -21 52 -49 l60 -29 -40 -1 c-33 -1 -52 7
-100 43 -82 60 -110 91 -155 177 -41 77 -51 86 -25 21 l16 -37 -28 26 c-28 26
-104 79 -133 93 -8 4 1 -5 20 -20 19 -16 87 -81 150 -145 63 -64 130 -124 148
-133 17 -9 32 -21 32 -26 0 -13 -3 -13 -75 5 -82 20 -102 17 -35 -4 l55 -18
-49 -8 c-37 -6 -57 -4 -82 9 -39 18 -45 31 -69 138 -9 43 -21 81 -27 84 -6 4
-8 -1 -4 -12 3 -11 12 -47 20 -81 l14 -62 -26 17 c-25 16 -25 14 6 -23 19 -22
48 -52 65 -67 l31 -28 -49 0 c-28 0 -69 9 -93 20 -48 22 -49 30 -9 103 16 29
18 40 9 49 -9 9 -12 9 -12 -3 -1 -36 -17 -43 -53 -20 -19 11 -40 21 -48 21 -7
0 8 -13 34 -30 51 -32 54 -37 33 -66 -14 -19 -15 -19 -40 5 -34 32 -102 165
-116 226 -24 108 3 128 189 135 l136 5 -52 17 c-68 22 -91 34 -136 74 -35 32
-87 46 -87 24 0 -20 41 -50 67 -50 20 0 103 -43 103 -54 0 0 -32 0 -70 2 -57
3 -72 7 -80 23 -15 28 -31 24 -21 -5 8 -20 5 -25 -24 -39 -24 -12 -37 -26 -43
-49 -8 -31 -9 -31 -16 -10 -14 41 -76 23 -76 -23 0 -45 48 -60 74 -24 14 21
15 20 22 -17 4 -22 13 -57 21 -79 l14 -40 -36 35 c-19 18 -35 29 -35 23 0 -6
17 -26 38 -45 20 -19 51 -57 69 -86 l32 -52 -40 22 c-22 13 -63 48 -90 79 -48
55 -108 94 -132 86 -7 -2 8 -14 33 -27 48 -24 90 -58 90 -73 0 -5 -16 5 -36
23 -40 35 -89 38 -108 8 -16 -26 19 -47 77 -48 43 0 60 -8 147 -65 90 -60 186
-105 225 -105 25 0 17 -18 -14 -34 -28 -15 -29 -15 -24 7 4 17 1 16 -11 -7 -9
-15 -16 -30 -16 -32 0 -11 28 -1 69 25 108 68 377 95 532 53 72 -19 190 -72
233 -105 17 -13 14 -14 -42 -15 -33 0 -97 -11 -142 -23 l-81 -22 -47 45 c-56
54 -91 78 -112 78 -8 0 1 -9 20 -21 39 -23 110 -89 110 -101 0 -4 -24 -8 -53
-8 -66 0 -89 21 -122 112 -13 34 -24 55 -24 46 -1 -9 10 -47 23 -83 l24 -66
-22 7 c-22 6 -118 58 -176 96 -26 17 -31 18 -21 5 22 -27 151 -104 200 -118
59 -17 32 -27 -77 -28 -96 -1 -124 10 -171 66 -28 34 -35 20 -7 -16 9 -12 6
-13 -16 -7 -16 3 -28 2 -28 -3 0 -11 25 -21 54 -21 12 0 32 -7 45 -16 14 -10
52 -19 93 -22 55 -4 71 -9 79 -24 6 -11 13 -17 16 -14 3 3 0 12 -6 20 -13 15
-14 15 144 30 l40 5 -30 -25 c-42 -34 -112 -67 -126 -58 -6 3 -14 1 -18 -5
-14 -21 -133 -33 -215 -22 -84 12 -135 34 -212 91 -60 45 -103 109 -139 205
-15 39 -31 74 -36 80 -14 14 19 -93 47 -151 13 -28 24 -54 24 -57 0 -8 -135
48 -175 73 -18 11 -36 28 -39 37 -6 16 -5 16 12 0 10 -9 22 -14 25 -10 15 15
5 78 -20 131 -26 54 -28 55 -31 28 -2 -16 -2 -51 0 -77 l3 -48 -21 20 c-21 19
-84 27 -84 10 0 -21 53 -70 83 -76 17 -4 53 -20 78 -36 25 -16 71 -38 102 -48
31 -11 65 -25 74 -31 16 -10 16 -11 -2 -4 -38 14 -97 16 -108 4 -9 -9 -6 -16
12 -31 25 -21 65 -24 105 -10 20 8 32 5 65 -20 23 -16 65 -41 94 -55 51 -25
53 -28 74 -97 l22 -72 -25 30 c-13 17 -24 33 -24 38 0 4 -4 7 -10 7 -19 0 -10
-22 25 -57 94 -94 81 -120 -24 -52 -42 28 -91 39 -91 21 0 -20 41 -44 116 -66
110 -34 202 -74 184 -80 -8 -2 -45 -10 -81 -16 -73 -13 -99 -6 -131 34 -12 15
-18 17 -18 7 0 -19 -64 42 -95 89 -12 19 -44 77 -71 129 -26 51 -50 89 -52 83
-5 -16 92 -202 134 -256 18 -24 52 -55 74 -67 21 -12 36 -27 33 -32 -9 -14
-148 -1 -208 19 -67 23 -154 110 -178 179 -22 65 -24 190 -2 199 17 6 19 28 6
54 -5 9 -13 26 -17 37 -10 27 -11 15 -19 -128 l-7 -118 -24 16 c-26 17 -34 19
-34 7 0 -5 15 -17 33 -27 25 -13 42 -36 68 -92 l36 -75 -41 6 c-23 4 -59 12
-81 18 -36 9 -38 11 -18 19 13 5 23 13 23 18 0 16 -72 61 -98 61 -22 0 -22 -1
-8 -27 35 -64 88 -95 173 -99 49 -2 70 -8 91 -26 15 -13 37 -30 49 -38 15 -11
23 -29 26 -63 4 -46 4 -47 -17 -34 -12 8 -36 36 -54 63 -19 27 -39 49 -45 49
-24 0 -16 -26 19 -65 20 -22 35 -42 33 -45 -3 -2 -26 -10 -52 -17 -38 -10 -51
-10 -65 0 -25 18 -64 33 -70 28 -2 -3 8 -11 24 -18 l28 -13 -32 -5 c-18 -3
-34 -9 -35 -15 -4 -19 63 -16 146 5 l82 20 57 -29 c31 -17 78 -44 105 -60 l48
-31 -40 0 c-22 0 -47 -5 -55 -10 -11 -8 3 -10 50 -9 73 2 143 -18 148 -42 2
-13 -3 -15 -23 -12 -14 3 -25 1 -25 -4 0 -16 31 -53 45 -53 8 0 19 -9 25 -20
10 -19 5 -18 -47 9 -32 17 -78 42 -102 57 -24 15 -41 22 -37 15 12 -18 112
-79 201 -122 45 -21 88 -46 95 -54 12 -14 8 -15 -31 -10 -174 23 -204 36 -224
96 -8 23 -19 35 -33 37 -34 5 -27 -23 16 -58 32 -27 34 -31 12 -25 -14 4 -75
32 -137 62 -153 74 -178 106 -149 188 7 17 5 17 -13 -4 -12 -13 -21 -30 -21
-38 0 -28 32 -74 72 -103 l41 -30 -35 0 c-37 0 -65 -21 -53 -40 10 -15 63 -12
91 6 29 19 43 12 23 -12 -12 -14 -11 -16 6 -12 11 2 19 9 18 15 -1 6 35 -5 80
-24 45 -19 93 -39 107 -45 l25 -10 -24 -9 c-13 -5 -22 -12 -19 -14 3 -3 18 -1
33 5 16 6 42 8 58 4 l30 -6 -24 -19 c-72 -55 -177 -62 -226 -13 -27 27 -38 31
-29 9 4 -12 -5 -15 -52 -16 -70 -1 -43 -17 30 -18 26 -1 69 -7 94 -13 l46 -13
-53 -16 c-34 -11 -45 -17 -30 -18 43 -2 159 39 211 74 29 19 63 35 77 35 38 0
226 -31 242 -40 21 -11 -58 -60 -108 -67 -34 -5 -44 -2 -59 17 -23 28 -57 21
-49 -10 5 -18 0 -20 -39 -20 -25 0 -61 7 -81 15 -30 13 -34 13 -24 1 7 -8 33
-19 59 -25 53 -11 196 -4 227 12 20 10 20 10 1 -12 -13 -14 -15 -21 -6 -21 7
0 39 24 70 54 43 42 66 55 100 61 67 11 176 51 248 90 62 34 67 36 114 26 27
-6 75 -11 106 -11 l57 0 -52 -31 c-32 -19 -76 -34 -114 -39 -68 -10 -78 -15
-61 -32 8 -8 24 -9 57 -1 56 13 51 6 -12 -17 -194 -71 -300 -95 -389 -87 -70
5 -70 -5 1 -18 49 -9 37 -16 -69 -44 -82 -22 -113 -37 -61 -29 24 3 35 -2 53
-24 l24 -28 -44 0 c-24 0 -77 9 -118 20 -89 23 -87 23 -73 9 6 -6 40 -20 75
-29 40 -12 53 -19 36 -19 -32 -1 -46 -18 -19 -23 19 -3 19 -4 1 -25 -17 -21
-20 -22 -56 -9 -24 9 -38 19 -35 27 8 29 6 52 -6 56 -9 3 -13 -6 -13 -27 0
-27 -3 -32 -20 -27 -38 10 -20 -4 43 -32 34 -16 79 -32 100 -35 38 -7 38 -8
21 -27 -29 -32 -10 -31 31 1 21 16 39 30 40 30 7 0 -21 -77 -32 -88 -16 -17
-17 -35 -1 -30 7 3 19 25 28 51 21 61 26 64 39 26 6 -18 13 -30 16 -27 3 3 1
18 -5 33 -18 47 -7 57 51 49 l51 -7 58 62 c32 33 61 61 64 61 13 0 5 -106 -9
-124 -19 -26 -19 -51 1 -81 36 -55 66 -6 46 72 -7 24 -12 61 -12 82 0 36 6 45
68 101 85 79 152 126 152 107 0 -28 -34 -113 -58 -145 -13 -19 -43 -42 -66
-52 -22 -10 -33 -19 -23 -19 10 -1 31 6 47 14 l28 15 -16 -39 c-9 -22 -20 -37
-24 -35 -8 5 -48 -32 -48 -44 0 -5 6 -17 14 -28 21 -28 50 -7 57 42 3 21 21
71 41 109 19 39 45 102 56 141 18 58 30 79 67 113 48 44 127 84 154 78 11 -2
-5 -24 -55 -73 -65 -64 -128 -137 -149 -174 -4 -8 44 39 108 105 64 65 118
117 120 115 3 -3 12 -19 20 -37 21 -40 62 -65 177 -108 113 -42 130 -55 71
-55 -24 0 -79 -10 -123 -22 -80 -22 -120 -20 -193 6 l-20 8 20 -17 c11 -9 39
-21 63 -27 l43 -11 -83 -38 c-46 -21 -75 -39 -65 -39 10 0 44 13 76 30 55 27
188 70 219 70 9 0 5 -11 -12 -31 -14 -17 -26 -41 -26 -54 0 -23 44 -85 60 -85
20 0 21 43 1 82 -18 38 -19 44 -5 59 8 9 35 22 60 29 82 23 224 -30 303 -113
31 -34 42 -114 42 -327 1 -182 -20 -433 -45 -555 l-12 -60 -204 -7 c-384 -14
-684 -43 -982 -98 -167 -30 -502 -110 -494 -117 2 -2 41 3 87 11 113 21 561
80 789 105 215 23 423 38 639 46 138 5 153 4 147 -11 -3 -8 -6 -20 -6 -25 0
-5 -16 -27 -36 -48 -51 -57 -161 -100 -399 -154 -11 -3 273 -5 630 -5 l650 -1
-130 33 c-159 41 -213 64 -247 105 -26 30 -54 98 -46 107 7 7 348 -15 558 -37
194 -19 687 -88 830 -115 133 -25 124 -15 -26 27 -327 92 -697 147 -1137 171
-198 10 -238 15 -241 28 -8 24 -25 193 -36 350 -12 159 -24 276 -41 386 -11
70 -11 73 17 124 40 73 94 131 147 158 58 29 161 26 227 -8 26 -13 51 -19 66
-16 48 12 21 41 -46 49 -48 5 -150 38 -150 48 0 3 19 19 43 36 108 77 183 93
234 49 25 -21 28 -30 26 -75 -2 -39 1 -51 12 -51 19 0 19 33 0 85 -8 22 -15
41 -15 42 0 0 8 -1 19 -4 10 -2 45 -31 77 -64 32 -32 63 -59 68 -59 20 0 -99
112 -139 132 l-40 19 59 -5 c66 -5 92 -24 130 -92 15 -26 21 -52 19 -70 -5
-34 26 -82 45 -70 21 13 8 77 -18 96 -4 3 -23 31 -43 63 -33 51 -35 57 -17 57
30 0 147 -47 202 -80 83 -51 77 -33 -7 22 -91 58 -145 77 -297 104 -60 10
-108 21 -108 25 0 11 108 48 177 60 81 14 177 7 226 -16 32 -15 103 -92 94
-102 -4 -4 -93 27 -152 52 l-39 17 28 15 c38 20 27 27 -16 9 -20 -9 -37 -14
-39 -12 -11 9 -60 16 -55 8 7 -12 200 -88 244 -97 20 -4 41 -18 54 -36 14 -18
28 -27 37 -24 9 4 40 -20 84 -65 38 -40 72 -69 75 -65 4 4 0 11 -9 16 -9 4
-24 20 -32 33 l-16 24 32 -9 c57 -16 74 -8 21 10 -55 20 -114 49 -114 56 0 3
19 2 43 -1 45 -6 102 10 92 26 -3 5 -16 15 -28 21 -21 12 -22 11 -4 -8 17 -20
17 -21 -5 -27 -38 -10 -57 -7 -109 15 -32 14 -60 36 -79 62 -16 22 -28 42 -27
43 2 2 25 -8 52 -21 26 -14 57 -25 67 -25 11 0 31 -6 46 -13 15 -8 42 -14 60
-15 48 -3 86 -26 123 -72 35 -44 51 -47 24 -6 l-17 26 42 -15 c48 -17 130 -20
130 -5 0 6 -23 10 -51 10 -31 0 -48 4 -44 10 3 6 16 10 28 10 25 0 54 16 45
25 -3 3 -28 -3 -56 -13 l-51 -20 -48 23 c-35 17 -42 24 -26 24 43 2 35 21 -9
21 l-43 0 33 21 c17 12 32 25 32 30 0 14 -7 11 -42 -20 -29 -25 -38 -28 -73
-22 -37 7 -38 8 -15 15 14 5 46 22 73 38 56 36 89 34 145 -11 50 -38 71 -48
126 -61 45 -10 126 -4 126 9 0 3 -19 5 -43 3 -59 -5 -111 11 -177 52 l-55 34
30 6 c166 33 370 123 450 201 64 62 56 77 -9 18 -30 -28 -91 -69 -137 -93 -78
-41 -82 -42 -75 -19 3 13 9 38 11 54 5 28 4 27 -15 -10 -11 -22 -20 -46 -20
-52 0 -20 -54 -43 -148 -63 -111 -25 -121 -25 -88 1 15 12 35 37 44 57 12 26
34 46 81 72 66 37 98 71 86 90 -13 21 -38 8 -92 -47 -57 -59 -77 -60 -48 -3 9
18 14 34 11 37 -7 8 -46 -77 -46 -101 0 -26 -46 -102 -65 -110 -11 -4 -8 7 10
39 17 29 24 52 20 65 -9 27 -21 18 -35 -28 -17 -52 -52 -86 -123 -118 -79 -35
-155 -37 -212 -6 -31 16 -35 21 -18 22 24 0 78 18 72 24 -2 2 -27 0 -56 -4
-43 -7 -60 -5 -110 16 -42 17 -77 24 -127 24 l-69 0 69 45 c38 24 81 45 95 45
15 0 67 -15 115 -34 81 -31 248 -67 298 -65 12 1 -9 11 -46 23 l-66 22 19 24
c29 39 22 48 -9 11 -25 -30 -30 -32 -66 -25 l-39 7 63 28 c34 16 66 26 71 24
16 -11 136 36 231 90 53 30 122 61 152 70 52 15 59 15 141 -4 101 -25 132 -27
95 -7 -14 8 -49 17 -77 21 -29 4 -55 10 -57 14 -3 4 47 12 111 19 108 10 133
16 122 26 -4 4 -150 -9 -204 -19 l-29 -5 34 25 c19 14 51 41 70 61 19 19 55
52 80 73 37 32 48 37 63 27 22 -14 51 2 55 33 4 26 -14 27 -48 4 l-25 -16 25
28 c14 15 45 36 70 47 25 11 40 22 33 25 -6 2 -30 -5 -53 -17 l-42 -21 7 23
c3 13 -8 -2 -25 -32 -33 -59 -95 -128 -106 -117 -4 3 5 20 20 37 30 36 35 87
10 97 -25 9 -44 -24 -44 -77 0 -90 -102 -186 -239 -225 l-78 -22 46 97 46 97
45 -13 c52 -16 84 -18 75 -5 -3 5 -30 15 -61 22 l-56 13 6 35 c5 35 4 35 -7 9
-6 -16 -14 -28 -17 -28 -4 0 -27 15 -51 32 l-44 33 40 6 40 6 -40 3 c-22 1
-51 5 -65 9 l-25 7 24 13 c30 16 95 10 177 -17 32 -11 76 -24 97 -27 35 -7 39
-6 35 11 -3 16 -11 18 -49 16 -24 -2 -58 2 -74 8 l-30 12 55 14 c30 8 65 21
77 29 30 20 46 19 93 -5 43 -22 95 -26 106 -9 4 8 -3 9 -24 4 -40 -8 -129 33
-97 46 11 4 35 8 53 8 39 1 75 18 67 32 -8 12 -48 12 -61 -1 -5 -5 -27 -16
-49 -23 -37 -13 -44 -12 -82 7 -46 23 -54 36 -24 36 34 0 181 50 181 62 0 6
-8 7 -17 3 -35 -13 -206 -55 -210 -51 -8 7 95 66 116 66 30 0 71 22 105 59 42
44 23 52 -22 9 -33 -32 -72 -58 -86 -58 -3 0 50 54 117 120 67 66 117 120 110
120 -6 0 -58 -46 -115 -103 -92 -91 -283 -235 -296 -222 -2 2 21 32 52 66 31
34 56 66 56 70 0 4 28 23 61 41 34 18 83 52 108 75 l46 44 -83 -56 c-45 -30
-87 -55 -92 -55 -5 0 -2 16 6 35 7 19 14 58 13 87 l-1 53 -9 -40 c-5 -22 -14
-58 -20 -80 -10 -34 -13 -37 -20 -20 -4 11 -8 33 -8 50 -1 29 -1 29 -16 9 -20
-30 -35 -103 -25 -128 6 -16 2 -29 -19 -51 l-26 -30 -1 65 c-1 36 -7 76 -12
90 -9 20 -10 12 -5 -36 8 -85 -15 -159 -64 -205 -29 -28 -171 -130 -244 -175
-12 -7 7 40 33 88 12 21 29 38 39 38 9 0 22 6 28 14 10 12 8 14 -11 10 -22 -5
-22 -4 -3 8 11 7 44 36 75 65 42 40 52 55 43 64 -15 15 -63 3 -63 -16 0 -9 9
-15 22 -15 l21 0 -21 -22 c-11 -13 -34 -31 -49 -40 l-28 -16 26 81 c24 73 31
85 78 122 29 23 66 62 81 86 21 31 40 46 66 54 41 11 65 38 48 55 -6 6 -22 1
-48 -16 -24 -16 -35 -20 -30 -11 5 9 8 36 6 61 -5 53 -25 66 -58 35 -22 -20
-23 -20 -50 -3 -27 18 -27 18 -15 -4 6 -12 21 -27 33 -33 19 -10 25 -8 45 17
l23 29 0 -54 c0 -72 -29 -130 -90 -181 -26 -22 -50 -40 -52 -40 -3 0 1 23 8
52 21 80 18 161 -6 189 l-21 24 17 -34 c19 -40 14 -114 -12 -194 -17 -50 -35
-64 -106 -81 -27 -6 -28 -5 -29 36 l-2 43 -10 -46 c-9 -41 -15 -49 -54 -68
-24 -11 -58 -21 -76 -20 l-32 1 35 10 c19 6 30 12 23 15 -6 2 -38 -7 -72 -21
-84 -36 -98 -35 -68 7 14 17 33 48 42 67 10 19 36 55 57 80 22 25 46 59 54 75
l14 30 -17 -25 c-10 -13 -37 -46 -60 -72 -24 -27 -50 -63 -59 -81 -9 -17 -29
-50 -45 -73 -26 -38 -32 -42 -98 -52 -38 -7 -81 -12 -94 -12 -24 0 -25 2 -14
35 10 35 10 35 71 35 34 0 68 5 76 10 10 7 -3 8 -43 4 -53 -6 -57 -6 -50 12 6
16 4 17 -8 7 -12 -10 -18 -10 -27 -1 -9 9 -12 8 -12 -5 0 -12 -8 -17 -31 -17
-38 0 -34 7 38 55 32 21 88 63 124 92 36 29 94 66 130 83 35 16 53 27 39 24
-44 -9 -169 -76 -204 -108 -18 -17 -47 -39 -65 -49 l-31 -18 0 28 c0 20 -3 24
-9 14 -5 -7 -6 -21 -4 -31 6 -21 -20 -40 -147 -106 l-96 -50 19 54 c10 30 16
56 14 59 -3 2 -12 -17 -20 -42 -16 -46 -85 -150 -94 -141 -2 2 2 27 11 55 8
28 11 53 7 55 -4 3 -13 -27 -20 -67 -6 -40 -24 -119 -38 -177 -14 -58 -33
-140 -42 -182 -9 -42 -19 -80 -22 -83 -11 -11 -34 120 -32 185 1 73 19 131 64
203 16 27 28 51 25 54 -5 5 -52 -66 -63 -94 -3 -8 -35 -28 -70 -44 -75 -33
-125 -67 -118 -78 8 -13 -92 -91 -116 -91 -8 0 38 166 56 199 22 42 93 104
205 178 172 115 248 149 387 177 116 23 223 65 223 89 0 5 -11 2 -24 -6 -34
-23 -121 -45 -201 -52 l-70 -6 55 36 c62 41 58 39 240 75 l135 27 50 -20 c53
-22 201 -35 216 -20 5 5 -18 7 -54 5 -48 -3 -76 2 -125 20 l-63 24 41 13 c78
23 155 31 294 31 140 0 138 0 376 60 40 11 78 35 68 45 -3 3 -24 -3 -47 -14
-22 -12 -54 -21 -70 -21 -16 0 -41 -4 -55 -10 -14 -5 -26 -7 -26 -5 0 17 56
85 69 85 21 0 115 59 108 67 -4 3 -27 -9 -53 -26 -58 -38 -66 -39 -54 -5 14
36 13 164 -1 164 -8 0 -10 -18 -5 -59 8 -71 -5 -109 -64 -188 -46 -60 -85 -76
-178 -71 l-57 3 60 20 c83 27 144 89 173 175 12 35 22 78 21 94 -1 35 0 36
-33 -75 -18 -61 -66 -124 -117 -153 l-34 -19 40 43 c24 26 32 38 19 32 -12 -6
-34 -26 -50 -44 -16 -18 -43 -39 -59 -47 -27 -12 -256 -44 -263 -36 -2 2 7 9
20 16 39 20 148 102 148 111 0 5 -24 -9 -52 -30 -105 -79 -194 -118 -353 -156
-82 -20 -157 -39 -165 -42 -20 -7 -14 -2 108 95 57 44 115 87 130 95 30 15
150 44 312 75 196 37 196 37 167 -3 -12 -17 -14 -17 -20 -2 -16 41 -67 3 -67
-50 0 -69 51 -50 95 36 17 34 32 49 59 58 20 7 36 18 36 24 0 5 -7 7 -15 4 -8
-3 -22 -9 -30 -12 -24 -10 -17 13 22 71 20 31 34 57 31 60 -6 6 -58 -67 -82
-112 -14 -29 -22 -33 -55 -33 -22 0 -75 -7 -118 -15 -43 -8 -82 -15 -86 -15
-8 0 4 18 58 86 l20 25 48 -25 c54 -29 57 -30 57 -16 0 6 -19 19 -42 29 -40
18 -41 19 -18 24 14 3 47 8 74 10 49 5 84 27 72 46 -13 21 -68 11 -127 -24
-32 -19 -59 -31 -59 -26 0 4 15 25 34 47 27 32 48 44 98 59 35 10 73 24 86 32
26 16 29 45 7 63 -22 18 -70 -17 -70 -51 0 -19 -8 -26 -35 -35 -19 -6 -36 -10
-38 -8 -2 1 8 19 23 39 14 21 25 42 25 46 0 5 18 16 40 25 47 19 47 32 0 16
-30 -11 -31 -10 -47 29 -20 52 -29 42 -13 -14 10 -38 9 -49 -4 -76 -20 -37
-25 -39 -19 -7 3 13 0 34 -7 46 -9 17 -14 19 -26 9 -16 -13 -19 -62 -4 -90 9
-16 4 -29 -32 -74 -35 -45 -54 -59 -106 -80 -36 -14 -67 -24 -69 -21 -3 3 -2
24 2 48 6 36 19 54 78 111 82 77 81 89 -1 20 -37 -32 -53 -41 -48 -28 4 11 16
54 27 94 21 81 28 91 75 91 30 0 131 56 121 67 -3 3 -21 -4 -39 -15 -39 -24
-114 -45 -128 -37 -12 7 46 92 72 106 10 5 17 13 16 17 -1 4 2 17 6 30 13 39
-2 37 -18 -2 -25 -60 -113 -152 -158 -165 -22 -7 -47 -15 -57 -18 -9 -3 2 8
24 24 52 39 102 93 87 93 -7 0 -28 -17 -47 -38 -18 -21 -50 -47 -69 -57 -20
-11 -36 -24 -36 -28 0 -5 -7 -4 -15 3 -9 7 -19 10 -22 6 -4 -4 -2 -10 5 -15 8
-5 0 -13 -23 -24 -20 -9 -38 -17 -41 -17 -3 0 16 24 42 53 27 30 65 86 85 127
35 71 38 74 94 95 33 12 61 27 63 33 2 7 -14 4 -40 -8 -50 -23 -73 -26 -62 -8
5 7 9 20 9 30 1 9 18 35 37 57 42 46 61 77 56 93 -2 6 -18 -14 -36 -44 -44
-80 -66 -92 -37 -21 17 41 19 67 5 58 -5 -3 -10 -16 -10 -28 0 -18 -2 -19 -10
-7 -5 8 -10 33 -10 55 0 22 -5 47 -10 55 -7 10 -8 -15 -4 -76 6 -77 4 -100
-15 -156 -33 -99 -125 -236 -199 -295 l-38 -30 23 66 c12 36 33 129 47 206 14
77 32 173 41 214 9 41 14 81 12 90 -2 9 -9 -11 -16 -44 -7 -33 -16 -71 -21
-85 -7 -21 -9 -17 -10 25 -1 28 -6 64 -10 80 -7 27 -8 26 -8 -15 -1 -25 3 -66
7 -93 9 -57 -21 -218 -70 -370 -33 -103 -54 -129 -137 -171 -32 -17 -34 -17
-29 1 3 10 8 65 12 123 l7 105 41 30 c62 44 107 86 107 98 0 6 -15 -3 -32 -20
-18 -16 -50 -42 -70 -58 l-38 -27 0 34 c0 24 10 46 33 74 48 57 77 100 77 115
0 8 -16 -10 -35 -38 -60 -89 -73 -77 -31 27 14 33 21 58 16 55 -13 -8 -46 -85
-55 -126 -4 -19 -12 -40 -18 -47 -13 -16 -67 -44 -137 -72 l-52 -20 24 32 c26
38 244 257 303 306 l40 33 -45 -23 c-24 -13 -86 -66 -138 -118 -94 -96 -105
-92 -27 10 23 30 50 70 60 88 11 17 27 34 36 37 36 12 99 66 99 85 0 11 -2 20
-5 20 -17 0 -66 -33 -85 -57 l-22 -28 7 40 c4 22 13 56 20 75 7 20 16 58 20
85 4 28 11 60 16 72 5 12 4 25 -1 28 -8 5 -22 -46 -36 -140 -6 -43 -9 -46 -15
-25 -4 14 -7 53 -8 86 -1 46 3 63 14 68 17 6 20 32 4 42 -6 3 -17 0 -24 -7 -9
-11 -11 -42 -6 -129 7 -120 -4 -210 -27 -218 -7 -2 -12 5 -12 18 0 12 -9 60
-21 107 -21 84 -21 86 -2 112 35 47 37 56 6 28 -35 -33 -36 -48 -10 -182 22
-110 21 -133 -9 -177 -15 -21 -29 -37 -31 -35 -2 2 4 35 12 72 9 37 15 82 13
99 -2 23 -8 12 -21 -49 -22 -96 -56 -203 -66 -210 -5 -2 -6 19 -4 48 3 51 3
51 -20 -28 -20 -71 -58 -145 -74 -145 -13 0 6 159 27 228 13 43 21 90 18 117
l-3 44 45 11 c61 15 100 31 100 41 0 12 -14 11 -25 0 -6 -6 -49 -18 -97 -29
l-87 -19 58 66 c33 36 71 77 86 91 39 35 105 139 105 164 0 12 -18 -10 -45
-57 -44 -75 -62 -96 -50 -58 8 25 -11 71 -30 71 -20 0 -20 -39 1 -68 14 -21
14 -24 -12 -55 -14 -17 -33 -36 -41 -40 -12 -7 -12 -4 1 22 18 34 21 61 6 61
-17 0 -32 -42 -27 -75 5 -28 -1 -39 -51 -91 l-56 -59 -4 34 c-2 22 1 37 11 42
32 18 61 48 54 55 -4 4 -21 -5 -37 -21 -33 -32 -35 -28 -19 29 9 33 8 41 -5
48 -21 12 -22 68 -1 68 19 0 84 40 107 67 20 21 48 86 47 105 0 7 -9 -7 -20
-32 -25 -55 -53 -86 -101 -111 l-37 -19 19 43 c11 23 19 53 19 67 l-1 25 -8
-25 c-4 -14 -17 -44 -27 -67 l-20 -43 -10 33 c-8 26 -7 38 3 52 23 32 15 95
-12 95 -19 0 -37 -38 -31 -69 3 -14 13 -46 22 -71 9 -24 13 -46 8 -47 -31 -11
-75 -47 -88 -74 -9 -17 -23 -87 -30 -156 -14 -124 -36 -192 -64 -201 -11 -4
-13 18 -9 109 6 112 36 247 73 323 8 16 12 33 8 39 -3 6 -1 7 5 3 6 -3 22 9
36 27 36 47 32 60 -4 17 -17 -19 -30 -30 -30 -24 0 10 15 101 25 154 5 24 5
24 -10 6 -8 -11 -15 -37 -15 -59 0 -35 -47 -196 -69 -235 -6 -11 -13 -2 -25
35 -14 42 -15 59 -5 99 13 58 13 157 -1 199 -7 22 -9 7 -5 -60 3 -49 1 -103
-4 -120 l-8 -30 -11 40 c-16 64 -24 182 -13 190 17 10 14 48 -3 42 -7 -3 -19
0 -26 6 -10 10 -11 7 -5 -13 4 -14 11 -63 15 -110 4 -47 11 -98 15 -115 7 -25
0 -19 -39 32 -26 35 -52 65 -57 69 -6 4 -6 11 1 19 7 8 7 15 1 19 -5 4 -12 -3
-16 -14 -5 -14 6 -36 38 -77 81 -105 130 -232 120 -314 -3 -27 -9 -52 -13 -54
-4 -2 -15 23 -24 57 -9 33 -19 58 -22 56 -4 -5 4 -45 27 -139 5 -20 9 -83 8
-140 -1 -69 -4 -94 -9 -73 -12 54 -18 64 -35 58 -22 -9 -19 -33 10 -79 22 -36
24 -50 25 -157 l0 -118 -50 -25 c-27 -14 -50 -21 -50 -17 0 5 9 35 20 67 11
33 19 63 17 68 -2 6 -14 -23 -27 -64 -23 -71 -54 -113 -102 -140 -16 -8 -17
-7 -8 15 16 43 82 169 114 221 46 72 48 75 42 75 -19 0 -149 -230 -175 -311
-6 -19 -27 -51 -46 -69 l-35 -34 0 40 c0 88 75 294 107 294 14 0 15 2 5 9 -11
6 -2 31 38 111 66 132 85 217 71 320 -6 47 -7 90 -1 115 5 22 9 72 8 110 l-1
70 -8 -70 c-13 -107 -35 -164 -90 -233 -28 -35 -53 -61 -55 -59 -3 3 2 85 10
183 15 171 17 181 46 222 32 46 25 59 -9 16 l-21 -27 0 25 c0 27 20 91 46 146
22 48 9 52 -15 5 -31 -62 -49 -148 -56 -274 -8 -127 -19 -166 -30 -105 -5 22
-3 48 4 62 29 64 -7 144 -39 85 -15 -30 -12 -57 15 -133 44 -121 31 -215 -44
-318 l-30 -41 -6 48 c-11 83 -13 81 -14 -14 -1 -94 -21 -169 -61 -236 l-18
-29 5 44 c3 24 0 54 -6 68 -8 21 -10 12 -10 -46 -1 -61 -7 -83 -40 -155 -22
-46 -45 -104 -51 -129 -11 -39 -13 -42 -23 -25 -6 11 -13 56 -15 101 l-4 80
65 127 c37 70 78 164 92 210 29 90 44 223 28 252 -8 14 -11 2 -11 -46 0 -70
-38 -212 -75 -286 l-23 -45 -17 79 -16 78 38 76 c21 42 47 111 57 154 15 65
22 79 46 91 62 32 129 108 128 146 -1 7 -10 -4 -21 -24 -11 -21 -43 -56 -72
-79 l-52 -42 -7 74 c-7 78 -4 117 14 186 l10 43 29 -39 c15 -22 34 -43 41 -47
7 -4 1 8 -13 27 -14 18 -33 47 -41 63 l-15 28 -17 -43 c-12 -28 -21 -93 -27
-179 -5 -74 -12 -143 -15 -153 -6 -18 -8 -17 -30 9 -28 35 -32 23 -4 -13 11
-14 20 -38 20 -54 0 -37 -26 -114 -58 -168 -37 -63 -47 -34 -22 63 11 42 22
118 25 169 3 50 8 121 10 157 5 59 4 63 -10 46 -8 -11 -15 -15 -15 -9 0 17
-70 166 -76 161 -2 -3 12 -41 32 -84 26 -58 37 -96 40 -144 l4 -65 -20 40
c-11 22 -20 46 -20 53 0 6 -5 12 -10 12 -14 0 -2 -47 22 -89 20 -36 17 -51 -7
-31 -10 8 -15 9 -15 2 0 -6 10 -16 21 -23 20 -10 21 -16 15 -78 -8 -72 -47
-196 -69 -218 -12 -12 -15 -2 -23 69 -11 109 -10 183 4 293 7 56 8 102 3 120
-8 24 -10 14 -11 -50 -1 -44 -7 -102 -14 -130 l-11 -50 -27 62 c-27 61 -27 66
-22 218 5 135 3 155 -10 155 -9 0 -18 -11 -22 -25z m1011 -473 l0 -112 -45
-40 c-81 -72 -80 -72 -74 22 9 133 22 188 55 221 16 15 37 27 46 25 16 -3 18
-17 18 -116z m-1234 58 c33 -15 39 -42 30 -135 l-6 -70 -33 55 c-17 30 -32 60
-32 65 -1 6 -8 -10 -16 -35 -23 -65 -29 -67 -53 -16 -26 57 -27 100 -1 126 11
11 20 26 20 33 -1 6 -10 1 -20 -12 -21 -24 -24 -21 -14 16 l6 22 47 -19 c25
-10 58 -23 72 -30z m885 -267 c-9 -38 -41 -111 -75 -173 -62 -110 -94 -183
-116 -260 l-13 -45 -1 51 c-2 89 42 202 122 317 22 31 38 60 35 62 -3 3 -17
-13 -32 -36 -15 -22 -30 -38 -33 -36 -3 3 0 29 6 57 6 28 10 59 10 68 -2 24
-27 -77 -28 -113 -1 -16 -23 -74 -50 -128 l-48 -99 -11 71 c-22 133 -14 160
87 276 34 39 80 99 104 135 l42 65 9 -73 c7 -57 5 -87 -8 -139z m-833 -53 c26
-107 28 -130 6 -88 -7 12 -31 48 -54 78 -68 89 -79 117 -66 161 l12 38 38 -42
c32 -36 42 -58 64 -147z m1327 128 c0 -51 -27 -138 -53 -175 -23 -32 -87 -86
-94 -80 -2 2 2 18 8 35 6 17 9 37 7 44 -3 7 -10 -10 -17 -38 -10 -43 -18 -53
-47 -68 -35 -16 -35 -16 -29 6 6 19 5 21 -6 11 -7 -7 -13 -20 -14 -30 -3 -33
-15 -60 -28 -60 -6 0 -21 -4 -31 -8 -40 -17 28 77 141 196 62 65 120 133 129
151 12 24 -4 11 -56 -45 -40 -43 -74 -76 -76 -75 -2 2 5 31 15 63 16 54 22 62
62 83 24 12 54 22 66 22 19 0 23 -5 23 -32z m-177 -55 c-29 -71 -62 -128 -112
-198 l-51 -69 0 48 c0 26 8 64 17 84 16 33 142 172 156 172 3 0 -1 -17 -10
-37z m-1334 -7 c78 -40 133 -97 174 -179 38 -78 33 -94 -6 -22 -47 85 -77 132
-77 119 0 -5 18 -41 41 -78 22 -37 39 -69 37 -71 -2 -2 -41 14 -88 36 -108 51
-88 29 28 -31 116 -60 127 -79 127 -220 0 -88 -4 -114 -24 -163 -29 -71 -35
-65 -62 66 l-18 91 31 55 c33 60 26 59 -14 -1 l-25 -38 -23 49 c-17 37 -21 58
-16 88 5 27 4 34 -3 23 -6 -8 -11 -24 -11 -35 0 -11 -20 16 -47 62 -25 46 -61
97 -79 115 -31 32 -32 35 -27 101 3 37 7 67 10 67 2 0 34 -16 72 -34z m561
-52 c26 -85 25 -127 -2 -183 l-22 -46 -8 55 c-13 91 -19 122 -24 117 -3 -2 0
-44 6 -93 10 -81 9 -94 -11 -158 l-23 -70 -12 35 c-18 50 -17 195 2 260 13 44
63 149 71 149 1 0 11 -30 23 -66z m-234 -29 c42 -55 64 -117 64 -180 0 -33 5
-78 10 -100 5 -22 7 -41 6 -43 -2 -2 -33 11 -69 29 l-65 32 -13 59 c-10 48
-10 81 1 175 13 111 14 114 28 86 8 -15 25 -42 38 -58z m-376 -80 c36 -52 102
-175 95 -175 -3 0 -22 7 -43 15 l-37 15 25 -20 c14 -10 37 -24 52 -31 25 -10
68 -87 68 -122 0 -13 32 -145 47 -192 3 -11 -13 3 -36 30 -42 51 -67 113 -58
146 3 11 1 19 -4 19 -8 0 -13 -34 -10 -70 3 -38 -56 94 -75 170 -12 47 -23 76
-23 64 -1 -33 38 -175 56 -203 l16 -25 -34 21 c-65 41 -74 69 -77 246 -2 86
-1 157 2 157 3 0 19 -20 36 -45z m1158 14 c-3 -8 -7 -3 -11 10 -4 17 -3 21 5
13 5 -5 8 -16 6 -23z m349 -70 c-5 -75 -8 -84 -38 -115 -18 -19 -37 -34 -41
-34 -4 0 -8 20 -8 44 0 47 -7 76 -20 76 -4 0 -5 -30 -3 -67 l5 -68 -62 -60
c-59 -57 -62 -59 -56 -30 19 107 28 145 34 145 4 0 18 9 32 20 l25 20 -28 -10
c-38 -14 -38 -14 -25 16 7 16 34 37 69 55 31 15 70 42 86 58 15 17 30 30 32
31 2 0 1 -37 -2 -81z m-683 -304 c-1 -158 -3 -175 -28 -244 -32 -90 -42 -172
-27 -228 10 -37 39 -73 92 -115 13 -11 15 -24 10 -69 -6 -48 -13 -64 -53 -107
-25 -29 -55 -70 -66 -94 l-21 -41 -12 29 c-6 16 -14 58 -16 94 -5 57 -2 73 21
119 32 63 47 101 40 101 -2 0 -23 -37 -44 -82 -47 -96 -51 -152 -20 -244 12
-32 27 -89 35 -125 13 -67 54 -173 62 -165 2 2 -5 35 -16 74 -40 132 -25 219
49 302 l31 35 -5 -40 c-4 -22 -11 -101 -16 -175 -11 -137 -23 -223 -41 -294
l-11 -40 -34 55 c-107 171 -155 300 -156 420 0 61 7 98 36 187 49 150 54 236
28 417 -28 187 -20 224 82 420 31 59 57 114 57 123 1 9 7 -19 13 -63 6 -44 11
-156 10 -250z m912 221 c-3 -29 -13 -71 -22 -92 -12 -27 -17 -64 -16 -119 l2
-81 -56 -27 -56 -28 7 43 c4 24 18 87 31 140 25 100 30 142 13 98 -14 -35 -56
-206 -64 -260 -4 -32 -13 -50 -31 -63 l-24 -18 6 103 c3 57 12 128 20 159 19
76 17 84 -7 26 -10 -27 -24 -94 -29 -150 -6 -56 -13 -117 -16 -134 -5 -33 -80
-130 -97 -125 -4 1 -6 -2 -3 -7 6 -9 -54 -115 -61 -107 -2 2 3 32 11 67 8 35
12 68 9 73 -4 5 -1 6 4 3 14 -9 31 12 61 76 32 69 43 97 37 97 -3 0 -21 -34
-41 -75 -40 -84 -54 -99 -54 -59 0 48 -8 22 -30 -101 -26 -145 -39 -177 -129
-302 -38 -54 -88 -130 -110 -168 -40 -68 -41 -69 -41 -35 0 19 -3 58 -6 85 -6
48 -5 51 24 68 64 37 139 117 174 184 52 100 56 130 6 42 -45 -80 -66 -108
-111 -149 l-28 -24 17 39 c9 22 20 86 25 141 4 56 10 119 14 140 5 34 4 36 -5
14 -6 -13 -16 -74 -22 -135 -12 -125 -38 -206 -72 -228 l-23 -16 -7 75 c-9
114 -22 117 -18 6 l4 -99 -38 -30 c-62 -48 -63 -48 -57 -1 9 76 32 168 52 206
11 20 47 71 80 112 34 41 79 109 100 150 43 82 57 95 219 195 51 31 91 59 89
61 -5 5 -132 -65 -195 -107 -23 -16 -45 -29 -48 -29 -11 0 63 98 115 154 71
74 157 136 291 207 58 31 107 57 109 58 2 0 1 -23 -3 -53z m-458 -118 c-13
-65 -29 -117 -45 -143 l-25 -40 6 70 c3 39 6 98 6 133 0 56 3 64 23 72 55 22
56 19 35 -92z m-859 9 c36 -21 52 -40 92 -116 74 -138 90 -196 96 -341 5 -133
-6 -211 -45 -300 -17 -38 -21 -42 -27 -25 -4 11 -23 56 -42 100 -68 156 -94
250 -96 349 -1 50 1 109 6 131 6 34 6 37 -5 20 -32 -53 -17 -280 27 -408 16
-48 12 -43 -53 54 -60 90 -96 187 -87 233 4 17 18 68 32 114 21 67 25 97 21
157 -6 83 -8 83 81 32z m1303 -92 c-8 -62 -10 -65 -11 -24 -1 57 12 155 17
119 1 -14 -1 -56 -6 -95z m513 103 c-2 -7 -18 -58 -34 -113 -17 -55 -38 -109
-46 -120 -9 -11 -14 -15 -11 -8 11 20 24 103 16 98 -4 -2 -17 -40 -30 -83 -33
-117 -66 -153 -285 -317 -104 -78 -191 -141 -193 -140 -1 1 13 37 31 81 l34
78 119 51 c65 28 128 56 139 62 24 15 3 17 -23 3 -38 -21 -222 -87 -222 -80 0
21 125 132 218 194 101 68 154 117 174 162 6 13 19 26 29 29 21 7 34 23 43 53
6 17 3 22 -10 22 -25 0 -54 -29 -54 -55 0 -40 -120 -154 -216 -203 -21 -11
-21 -11 -9 46 20 94 34 139 48 150 28 23 233 99 274 101 7 1 11 -5 8 -11z
m-1070 -125 c-9 -97 -32 -181 -63 -237 -39 -68 -175 -227 -186 -216 -5 5 -11
39 -13 77 -4 52 0 82 15 128 34 99 34 102 7 55 l-26 -45 4 55 c4 53 6 57 76
122 62 58 157 123 184 127 5 0 6 -29 2 -66z m738 -64 c-12 -45 -23 -89 -23
-99 0 -10 -21 -36 -47 -57 -72 -60 -77 -61 -58 -16 39 92 134 253 150 253 1 0
-9 -37 -22 -81z m-2410 45 c26 -9 47 -21 47 -27 0 -7 20 -58 44 -114 24 -57
42 -103 40 -103 -3 0 -27 12 -55 26 -71 36 -72 23 -2 -17 92 -53 138 -116 76
-104 -27 5 -27 5 3 -9 31 -15 31 -16 41 -118 6 -57 9 -104 8 -106 -2 -2 -31
29 -64 70 -104 124 -168 280 -186 451 -4 37 -5 67 -3 67 2 0 25 -7 51 -16z
m592 -46 c49 -58 103 -140 142 -218 27 -52 30 -66 18 -68 -22 -5 -18 -22 4
-22 12 0 29 -15 42 -37 13 -21 54 -79 91 -128 37 -50 75 -109 84 -130 17 -40
45 -225 35 -225 -16 0 -131 104 -159 144 -57 79 -75 131 -69 200 l5 61 -11
-48 -12 -49 -62 149 c-34 81 -76 185 -92 230 -16 45 -44 109 -61 143 -27 53
-28 60 -11 51 10 -6 36 -30 56 -53z m-143 -47 c38 -60 37 -74 -4 -66 -80 17
-93 28 -111 93 -9 34 -17 64 -17 67 0 4 23 -6 52 -22 34 -18 61 -43 80 -72z
m-327 48 c31 -11 88 -47 128 -79 86 -69 171 -156 142 -146 -11 4 -56 10 -100
12 -54 2 -72 1 -55 -5 14 -5 41 -9 61 -10 70 -2 137 -29 166 -68 27 -35 28
-43 32 -160 l3 -123 -63 41 c-35 24 -67 47 -71 53 -4 6 -8 37 -8 69 0 36 -4
56 -10 52 -5 -3 -10 -24 -10 -47 l0 -40 -41 48 c-62 75 -116 160 -164 259 -50
104 -76 165 -70 165 2 0 29 -9 60 -21z m2216 -26 c-16 -27 -40 -70 -55 -98
l-26 -50 0 47 c0 25 -2 52 -5 60 -3 8 17 27 53 50 31 20 58 37 59 37 2 1 -10
-20 -26 -46z m-111 -187 c-15 -76 -29 -106 -51 -106 -9 0 -47 -9 -84 -21 -37
-11 -70 -18 -73 -15 -3 4 14 34 38 69 24 34 36 56 27 49 -26 -22 -92 -112 -92
-126 0 -8 -29 -35 -65 -61 -36 -26 -70 -52 -77 -57 -16 -13 64 134 104 192 50
72 143 157 213 194 l65 35 3 -47 c2 -26 -2 -73 -8 -106z m-831 42 c-1 -57 -4
-75 -9 -58 -14 45 -10 140 6 140 2 0 4 -37 3 -82z m-912 28 c1 -1 4 -35 8 -76
l7 -75 -30 45 c-17 25 -49 63 -71 85 -58 56 -53 65 22 42 34 -11 63 -21 64
-21z m2293 -1 c-17 -25 -41 -52 -53 -60 -19 -12 -134 -44 -161 -45 -23 0 121
101 164 115 28 9 52 21 55 26 4 5 11 9 16 9 6 0 -4 -20 -21 -45z m-2222 -45
c22 -21 72 -110 72 -130 0 -7 -6 -7 -21 0 -11 7 -23 10 -25 7 -3 -2 9 -10 25
-17 19 -7 40 -30 56 -57 30 -55 32 -67 4 -34 -16 20 -22 22 -29 11 -4 -7 -29
-21 -54 -31 l-46 -17 0 29 c0 29 -25 215 -35 257 -5 20 -3 22 12 13 10 -5 28
-19 41 -31z m802 -95 c34 -117 46 -203 32 -217 -15 -15 -68 33 -88 79 -19 44
-18 135 3 201 19 61 17 63 53 -63z m-1063 -153 c40 -49 66 -92 78 -130 9 -31
28 -79 42 -106 l25 -48 -47 33 c-62 45 -128 117 -155 168 -13 27 -23 70 -27
114 -6 84 -10 85 84 -31z m1873 63 c-25 -66 -120 -193 -161 -215 -14 -8 -16
-3 -13 38 l4 47 -14 -50 c-9 -27 -15 -53 -16 -56 0 -4 -49 -34 -108 -67 -59
-33 -132 -79 -162 -101 -30 -22 -56 -39 -58 -36 -5 5 61 116 101 170 85 113
243 237 346 272 87 29 93 29 81 -2z m-1495 -77 c19 -8 38 -37 67 -97 48 -100
85 -158 146 -223 l44 -47 -49 -24 c-26 -14 -57 -35 -68 -47 l-20 -22 -5 93 -5
94 -11 -75 c-6 -41 -13 -68 -17 -60 -3 8 -15 40 -27 70 -11 30 -31 73 -46 95
-29 45 -28 42 20 -75 19 -47 46 -129 60 -182 14 -53 41 -129 61 -168 37 -74
39 -104 4 -60 -120 150 -197 274 -238 385 -25 66 -51 208 -51 276 0 27 1 49 3
49 1 0 20 7 42 15 50 18 58 18 90 3z m-230 -115 c52 -37 52 -37 59 -102 3 -37
9 -77 12 -91 5 -22 0 -19 -35 18 -43 46 -117 212 -95 212 3 0 30 -17 59 -37z
m1085 -197 c0 -105 -12 -182 -50 -311 -24 -84 -85 -215 -100 -215 -13 0 -13
-5 10 119 10 58 24 179 29 268 l11 162 42 40 c24 22 46 41 51 41 4 0 7 -47 7
-104z m1344 10 c-4 -10 -17 -21 -29 -26 -29 -11 -156 -23 -135 -13 19 10 164
59 168 57 1 -1 0 -9 -4 -18z m-2506 -8 c46 -22 175 -136 193 -170 10 -18 8
-18 -24 -5 -51 22 -162 45 -250 53 l-78 7 32 33 c18 19 28 34 23 34 -6 0 -23
-14 -40 -31 -27 -28 -33 -30 -79 -25 -27 3 -44 3 -37 0 6 -3 9 -11 5 -17 -4
-6 0 -8 11 -4 9 4 51 1 93 -5 l76 -12 -89 -23 c-49 -12 -106 -23 -127 -23 -42
0 -197 48 -197 61 0 5 3 9 8 9 4 0 32 19 62 42 112 85 322 123 418 76z m1912
-23 c0 -3 -6 -21 -14 -39 -11 -27 -21 -34 -52 -39 -63 -10 -140 -55 -205 -119
-55 -54 -61 -58 -55 -33 12 49 73 129 124 163 63 42 202 88 202 67z m567 -54
c-8 -22 -33 -71 -55 -108 -22 -38 -45 -86 -51 -109 -19 -72 -96 -155 -189
-203 -43 -23 -33 -4 12 23 50 29 106 92 106 118 0 26 -17 22 -41 -11 -18 -25
-26 -29 -55 -24 -23 4 -34 2 -34 -7 0 -8 9 -10 28 -5 25 6 26 5 10 -11 -9 -10
-38 -19 -68 -22 -51 -5 -52 -4 -41 17 18 32 97 87 171 117 69 29 98 49 87 61
-9 8 -113 -41 -190 -90 l-60 -38 7 32 c3 17 6 40 6 50 0 10 16 27 40 40 46 26
47 38 1 14 l-31 -16 0 38 c0 28 -3 34 -10 23 -5 -8 -10 -27 -10 -41 0 -22 -8
-30 -40 -43 -57 -22 -59 -21 -49 25 13 58 5 74 -9 19 -19 -78 -71 -115 -199
-143 -99 -22 -146 -49 -225 -125 -75 -72 -79 -70 -53 31 42 161 176 302 308
324 l35 5 -9 -43 c-15 -66 -35 -90 -113 -142 -40 -26 -75 -47 -79 -47 -17 0
-4 43 29 91 32 48 33 51 9 29 -29 -27 -64 -93 -65 -122 0 -28 22 -21 104 32
41 27 90 54 108 59 24 7 27 9 11 10 l-21 1 19 50 c10 28 19 59 19 70 0 21 15
27 25 10 3 -5 16 -15 28 -21 22 -10 22 -10 -1 10 l-23 20 33 5 c18 3 56 8 83
11 28 4 61 8 75 11 14 3 3 -6 -25 -20 -62 -30 -51 -34 16 -5 27 12 46 26 42
32 -3 5 -1 7 4 4 6 -4 26 -1 44 7 19 8 79 19 135 25 55 7 113 15 130 20 16 4
30 7 32 6 1 -1 -4 -21 -11 -44z m-1866 -18 c33 -24 42 -39 65 -111 15 -46 53
-134 84 -195 84 -164 85 -169 70 -309 -7 -65 -16 -118 -21 -118 -4 0 -23 21
-42 48 -19 26 -67 85 -106 132 -120 143 -151 229 -129 355 l7 40 -13 -40 c-8
-22 -15 -53 -16 -70 -1 -27 -5 -22 -35 39 -19 38 -37 89 -41 113 -5 38 -3 48
17 70 19 20 100 70 117 73 2 0 21 -12 43 -27z m-1050 -78 c31 -13 85 -31 120
-39 l64 -13 -56 -27 c-30 -14 -80 -30 -109 -36 -74 -14 -78 -24 -6 -16 64 7
139 36 171 66 21 19 106 44 191 55 103 13 250 -33 316 -98 17 -18 56 -66 87
-107 30 -41 89 -116 131 -166 277 -333 340 -415 340 -438 0 -4 -27 26 -60 67
-80 99 -152 164 -269 241 -113 75 -117 79 -167 176 -44 84 -132 184 -203 229
-71 46 -72 38 -2 -15 74 -55 81 -66 39 -53 -57 16 -65 9 -12 -12 54 -20 77
-41 113 -101 l22 -37 -43 18 c-24 10 -64 26 -89 35 -36 13 -57 31 -94 79 -60
78 -116 137 -129 137 -6 0 6 -17 25 -37 20 -21 57 -68 82 -105 l46 -68 -90 0
c-58 0 -100 5 -118 14 -49 26 -66 99 -35 157 8 17 13 33 10 36 -3 4 -16 -16
-28 -43 -13 -30 -23 -43 -26 -34 -14 42 -23 62 -27 58 -12 -12 48 -157 77
-187 34 -35 33 -35 178 -35 134 -1 208 -27 284 -98 38 -36 45 -46 26 -39 -14
4 -90 23 -170 41 -149 33 -258 72 -390 141 -50 26 -98 43 -141 49 -56 8 -67
13 -89 42 -39 51 -123 139 -128 133 -2 -2 -13 0 -23 6 -34 18 -20 0 25 -30 38
-26 111 -109 103 -117 -2 -2 -36 5 -77 15 -48 12 -68 14 -57 6 9 -7 45 -18 80
-25 79 -16 89 -26 41 -39 -111 -31 -172 -20 -233 43 -26 27 -106 194 -97 203
1 1 19 -2 41 -7 54 -13 179 -11 240 4 28 6 52 8 55 4 3 -4 31 -19 61 -33z
m3249 8 l41 -27 -35 -18 c-53 -27 -124 -40 -184 -32 l-55 7 24 18 c31 24 138
79 155 79 7 0 31 -12 54 -27z m-1377 -125 c-17 -64 -12 -145 17 -259 20 -77
20 -85 6 -123 -9 -23 -27 -54 -41 -71 l-24 -30 -1 25 c0 14 -7 55 -14 92 -14
61 -13 72 5 130 10 35 18 81 17 103 -1 32 -2 34 -5 10 -5 -45 -35 -145 -43
-145 -4 0 -22 36 -40 80 -18 45 -34 79 -36 77 -3 -2 5 -33 16 -68 11 -35 20
-66 20 -69 0 -5 -192 -1 -198 4 -1 2 7 23 18 49 16 35 30 50 65 67 25 12 66
46 92 75 39 43 127 104 154 105 3 0 0 -24 -8 -52z m671 -25 c-11 -81 -29 -113
-62 -113 -44 0 -127 31 -111 41 8 5 26 9 42 9 27 0 37 15 15 23 -21 7 11 37
67 62 27 13 51 24 53 24 2 1 0 -20 -4 -46z m489 -35 c37 -28 65 -53 63 -55 -2
-2 -30 -10 -62 -18 -33 -7 -67 -17 -78 -21 -16 -6 -17 -4 -7 14 16 30 31 72
26 72 -2 0 -13 -16 -23 -36 l-18 -36 -28 37 c-39 50 -45 37 -7 -16 23 -31 28
-45 20 -55 -17 -21 -130 -54 -185 -54 l-53 0 95 90 c97 93 147 130 175 130 8
0 45 -23 82 -52z m-639 -83 c37 -14 75 -25 86 -25 25 0 25 -16 1 -56 -24 -39
-55 -45 -237 -43 -112 1 -138 -2 -178 -19 -25 -12 -46 -17 -46 -13 0 15 83
103 120 126 47 30 116 54 156 55 18 0 62 -11 98 -25z m-2191 -41 l105 -49
-105 -42 c-98 -41 -163 -53 -190 -35 -6 4 -14 25 -18 47 -10 51 -30 91 -50 99
-12 4 -11 -1 5 -22 18 -25 44 -112 33 -112 -17 0 -63 45 -59 56 3 8 1 14 -4
14 -19 0 -10 -34 16 -61 l26 -27 -59 -22 c-53 -21 -65 -22 -133 -12 -41 6 -84
14 -94 18 -12 5 -17 4 -13 -3 8 -13 98 -33 162 -36 47 -2 45 -3 -45 -20 -117
-23 -142 -16 -170 45 -11 24 -20 51 -20 60 0 9 -5 20 -11 24 -19 11 -1 -66 27
-113 13 -23 21 -44 16 -47 -4 -2 -27 4 -50 14 l-43 19 7 49 c5 37 2 57 -12 83
-9 19 -19 29 -21 22 -2 -6 3 -23 12 -37 9 -14 15 -35 13 -48 -3 -19 -7 -15
-27 25 -30 62 -38 55 -11 -12 11 -28 20 -53 20 -55 0 -3 -33 14 -72 35 l-73
40 -3 46 c-3 46 -3 46 26 40 127 -25 306 -13 461 33 53 15 105 31 116 33 55
15 135 -2 238 -49z m2835 -61 c-71 -130 -81 -136 -210 -137 l-103 -1 -90 55
c-65 40 -84 56 -69 58 11 2 47 -13 79 -33 48 -29 68 -35 109 -34 l51 1 -50 8
c-49 7 -128 40 -139 59 -6 9 63 21 124 21 41 0 141 32 179 57 35 23 165 62
169 51 2 -4 -20 -52 -50 -105z m-440 65 c-13 -21 -97 -72 -105 -64 -2 1 3 19
12 39 13 32 19 36 57 40 24 2 45 4 47 5 2 1 -3 -8 -11 -20z m-2183 -108 c37
-17 38 -18 13 -19 -52 -2 -142 -44 -250 -118 -126 -86 -168 -103 -249 -103
-66 0 -84 12 -118 78 l-20 39 77 12 c116 19 242 51 287 74 72 37 169 67 195
61 14 -3 43 -14 65 -24z m1360 -22 c11 -26 20 -80 23 -135 l4 -92 -48 -68
c-26 -37 -89 -111 -139 -163 -50 -52 -102 -110 -115 -129 l-23 -33 -13 25 c-8
14 -21 67 -30 119 -31 175 -7 318 77 464 l30 54 109 0 108 0 17 -42z m846 -33
c90 -61 122 -70 212 -63 l62 6 -53 -25 c-29 -14 -77 -28 -105 -32 -29 -4 -65
-14 -82 -23 -59 -30 -85 -30 -177 5 l-88 34 23 20 c12 11 44 29 71 39 27 10
44 20 39 21 -6 2 -28 -3 -48 -11 -21 -9 -39 -16 -41 -16 -3 0 7 23 21 50 34
68 58 67 166 -5z m-1245 -12 c-37 -55 -56 -116 -71 -223 l-13 -95 -1 75 c-2
117 22 189 94 287 22 30 14 -8 -9 -44z m1062 20 c-39 -64 -135 -159 -197 -191
-32 -18 -61 -32 -64 -32 -3 0 8 29 24 65 17 36 33 84 35 108 4 37 2 34 -25
-36 -16 -43 -40 -93 -51 -113 -26 -42 -56 -60 -63 -39 -3 7 -1 16 6 18 7 2 9
8 5 12 -4 4 -19 -2 -34 -14 -21 -17 -29 -19 -36 -9 -6 10 -8 9 -8 -3 0 -23
-46 -61 -140 -114 -47 -27 -114 -71 -150 -99 -158 -125 -169 -126 -50 -7 108
109 208 238 258 336 27 53 66 89 127 116 43 20 71 24 200 27 82 2 152 5 154 8
2 2 10 4 17 4 9 0 7 -11 -8 -37z m-1840 -7 c35 -8 65 -16 68 -19 2 -2 -21 -9
-53 -16 -76 -15 -147 -49 -260 -123 -99 -65 -123 -68 -123 -19 0 16 -4 33 -10
36 -6 4 -8 -10 -4 -38 l6 -44 -87 -11 c-48 -7 -91 -9 -96 -7 -4 3 -10 1 -14
-5 -7 -12 87 -13 157 -1 26 4 45 4 43 0 -3 -4 -40 -22 -83 -41 -72 -31 -84
-33 -187 -33 -120 0 -165 14 -221 72 -15 16 -23 22 -20 16 14 -25 -13 -13 -38
17 -28 34 -52 108 -39 121 4 4 35 -10 68 -32 82 -54 157 -81 237 -87 59 -4 75
-1 130 26 35 16 95 53 133 82 149 111 246 137 393 106z m233 -98 c56 -29 212
-166 174 -152 -73 26 -157 35 -270 30 -66 -3 -182 -8 -257 -12 -101 -5 -138
-4 -138 5 0 11 103 82 168 115 32 16 32 16 32 -6 0 -23 0 -23 13 2 8 17 27 29
60 38 27 8 51 11 54 9 2 -3 -3 -18 -12 -34 l-17 -28 23 27 c28 32 66 49 94 41
11 -3 45 -19 76 -35z m-1028 -23 c14 -25 24 -45 22 -45 -15 0 -73 35 -69 41 2
4 -1 11 -7 15 -8 4 -9 3 -5 -4 10 -16 1 -15 -35 3 -39 21 -28 35 26 35 41 0
45 -2 68 -45z m2287 -115 c0 -9 -51 -40 -65 -40 -9 0 48 49 58 50 4 0 7 -4 7
-10z m-1165 -54 c145 -35 206 -83 266 -210 21 -44 37 -82 35 -83 -6 -6 -154
79 -174 100 -13 14 -30 44 -37 68 l-14 44 0 -34 c-1 -18 8 -48 19 -67 l21 -33
-38 11 c-86 23 -122 55 -176 152 -15 28 -25 42 -22 31 22 -65 30 -83 52 -113
l24 -32 -48 19 c-26 10 -67 27 -91 36 -66 27 -118 103 -79 118 27 11 205 6
262 -7z m515 -401 c41 -220 48 -277 65 -535 13 -195 25 -300 49 -450 5 -30 4
-29 -9 10 -21 61 -41 232 -60 490 -15 206 -36 363 -71 515 -8 39 -17 126 -19
195 l-4 125 10 -95 c5 -52 23 -167 39 -255z m-1070 301 c0 -5 -141 -111 -167
-125 -12 -6 -42 -9 -65 -7 -24 3 -34 3 -23 0 48 -12 49 -14 27 -30 -29 -20
-159 -64 -191 -64 -25 0 -71 35 -71 54 1 12 229 87 320 106 42 8 120 40 168
69 1 0 2 -1 2 -3z m-175 -166 c-10 -11 -23 -20 -29 -20 -6 0 0 9 14 20 32 25
38 25 15 0z m-115 -55 c0 -3 -42 -26 -94 -51 -96 -47 -155 -61 -201 -50 l-26
7 27 34 26 35 97 0 c59 1 107 6 126 15 34 15 45 18 45 10z m1229 -285 c20
-186 5 -522 -29 -625 -11 -32 -11 -40 10 130 24 191 22 376 -5 610 -4 33 -3
35 4 13 5 -15 14 -73 20 -128z m-42 -692 c-3 -7 -5 -2 -5 12 0 14 2 19 5 13 2
-7 2 -19 0 -25z"/>
<path d="M3188 4343 c-30 -34 -35 -103 -8 -103 12 0 36 46 45 88 8 37 -11 44
-37 15z"/>
<path d="M1918 4310 c-22 -20 -23 -40 -4 -65 14 -19 15 -19 26 7 8 17 9 35 4
51 -8 23 -10 23 -26 7z"/>
<path d="M2710 3986 c0 -21 26 -43 37 -32 9 8 -8 44 -22 50 -11 4 -15 -2 -15
-18z"/>
<path d="M2170 3975 c0 -8 5 -15 10 -15 6 0 10 7 10 15 0 8 -4 15 -10 15 -5 0
-10 -7 -10 -15z"/>
<path d="M2541 3343 c-7 -26 -14 -57 -18 -68 -3 -13 -2 -17 5 -10 11 11 35
115 28 122 -2 2 -9 -18 -15 -44z"/>
<path d="M2570 2800 c0 -13 5 -20 13 -17 6 2 12 10 12 17 0 7 -6 15 -12 18 -8
2 -13 -5 -13 -18z"/>
<path d="M3280 3620 c0 -5 7 -10 15 -10 8 0 15 5 15 10 0 6 -7 10 -15 10 -8 0
-15 -4 -15 -10z"/>
<path d="M3282 3390 c0 -14 2 -19 5 -12 2 6 2 18 0 25 -3 6 -5 1 -5 -13z"/>
<path d="M3250 3310 c-6 -11 -8 -20 -6 -20 3 0 10 9 16 20 6 11 8 20 6 20 -3
0 -10 -9 -16 -20z"/>
<path d="M2283 3384 c-6 -17 6 -45 23 -51 5 -2 19 3 29 11 16 12 18 18 9 33
-15 24 -52 29 -61 7z"/>
<path d="M2355 3030 c3 -5 11 -10 16 -10 6 0 7 5 4 10 -3 6 -11 10 -16 10 -6
0 -7 -4 -4 -10z"/>
<path d="M3836 3544 c-9 -22 3 -32 14 -14 12 19 12 30 1 30 -5 0 -12 -7 -15
-16z"/>
<path d="M2891 3543 c-2 -41 -11 -54 -32 -42 -15 7 -19 6 -19 -5 0 -8 7 -19
16 -24 14 -8 13 -17 -2 -99 -12 -67 -13 -96 -5 -109 8 -16 10 -10 11 30 0 27
9 88 21 137 11 48 19 99 16 111 -4 22 -4 22 -6 1z"/>
<path d="M2030 3290 c0 -6 7 -10 15 -10 8 0 15 2 15 4 0 2 -7 6 -15 10 -8 3
-15 1 -15 -4z"/>
<path d="M2243 2814 c-8 -21 13 -42 28 -27 13 13 5 43 -11 43 -6 0 -13 -7 -17
-16z"/>
<path d="M1560 3366 c0 -7 6 -19 14 -25 19 -16 32 5 16 24 -16 19 -30 19 -30
1z"/>
<path d="M1702 3178 c4 -28 35 -35 63 -14 24 18 21 21 -28 30 -36 7 -38 6 -35
-16z"/>
<path d="M1590 3034 c19 -21 39 -43 44 -49 5 -5 1 5 -10 24 -10 18 -30 41 -44
49 -21 13 -19 9 10 -24z"/>
<path d="M3395 3101 c-8 -15 3 -31 21 -31 9 0 14 7 12 17 -4 20 -24 28 -33 14z"/>
<path d="M3310 3049 c0 -24 23 -21 28 4 2 10 -3 17 -12 17 -10 0 -16 -9 -16
-21z"/>
<path d="M1990 2924 c-23 -26 24 -60 78 -55 21 2 13 38 -13 55 -31 20 -49 20
-65 0z"/>
<path d="M3956 2626 c-4 -17 -17 -44 -29 -60 -16 -24 -17 -28 -3 -17 24 20 48
69 44 89 -3 11 -7 7 -12 -12z"/>
<path d="M4007 2573 c-12 -11 -8 -23 8 -23 8 0 15 7 15 15 0 16 -12 20 -23 8z"/>
<path d="M3957 2536 c-9 -7 -17 -19 -17 -27 0 -9 8 -6 22 9 25 24 22 37 -5 18z"/>
<path d="M2395 2320 c3 -47 7 -98 10 -115 6 -30 6 -29 -34 15 -23 25 -41 41
-41 36 0 -8 40 -59 98 -125 l23 -26 -15 26 c-9 14 -13 29 -9 34 5 4 4 6 -2 3
-6 -4 -11 13 -12 40 -2 26 -7 81 -12 122 l-10 75 4 -85z"/>
<path d="M1262 2519 c2 -6 8 -10 13 -10 5 0 11 4 13 10 2 6 -4 11 -13 11 -9 0
-15 -5 -13 -11z"/>
<path d="M962 2498 c5 -15 28 -23 28 -10 0 5 -7 13 -16 16 -10 4 -14 1 -12 -6z"/>
<path d="M1367 2419 c18 -19 47 -42 65 -52 30 -17 29 -15 -12 23 -58 54 -97
75 -53 29z"/>
<path d="M1570 2445 c0 -7 78 -45 90 -45 6 0 9 4 6 9 -6 10 -96 43 -96 36z"/>
<path d="M2092 2201 c18 -16 35 -27 38 -24 6 5 -50 53 -63 53 -4 0 7 -13 25
-29z"/>
<path d="M3030 2300 c6 -11 13 -20 16 -20 2 0 0 9 -6 20 -6 11 -13 20 -16 20
-2 0 0 -9 6 -20z"/>
<path d="M4068 2313 c-28 -33 -30 -43 -9 -43 11 0 25 9 32 21 15 28 -3 45 -23
22z"/>
<path d="M1337 2293 c-13 -13 -7 -58 13 -90 28 -47 34 -41 9 8 -17 34 -19 47
-10 65 10 22 3 32 -12 17z"/>
<path d="M994 2216 l29 -13 -35 -7 c-19 -3 -50 -4 -69 0 -26 4 -30 3 -19 -5
32 -23 155 -5 173 25 3 5 -21 10 -52 11 -53 1 -55 1 -27 -11z"/>
<path d="M4208 2244 c-16 -8 -28 -17 -28 -19 0 -11 19 -4 41 15 29 23 24 25
-13 4z"/>
<path d="M4113 2174 c-25 -26 -26 -27 -8 -40 26 -20 59 -17 79 5 46 51 -22 84
-71 35z"/>
<path d="M1210 2023 c1 -20 44 -53 69 -53 19 0 12 28 -11 44 -23 17 -58 22
-58 9z"/>
<path d="M1174 1974 c15 -14 31 -23 34 -20 9 9 -30 46 -47 46 -11 -1 -8 -8 13
-26z"/>
<path d="M2880 2154 c0 -25 50 -66 103 -83 l57 -18 -19 31 c-11 17 -30 39 -43
49 -26 19 -98 35 -98 21z"/>
<path d="M2821 1939 c-17 -17 -34 -42 -37 -56 l-7 -26 -19 24 c-16 20 -18 20
-12 4 5 -11 10 -60 12 -110 1 -49 5 -96 7 -103 7 -20 102 64 132 116 14 24 23
45 20 48 -13 14 -108 -63 -136 -111 -10 -16 -11 -7 -7 51 5 76 22 122 64 167
35 37 21 34 -17 -4z"/>
<path d="M2806 1863 c-6 -14 -5 -15 5 -6 7 7 10 15 7 18 -3 3 -9 -2 -12 -12z"/>
<path d="M2825 1850 c-16 -16 -24 -30 -18 -30 7 0 21 14 33 30 12 17 20 30 18
30 -3 0 -17 -13 -33 -30z"/>
<path d="M3792 2008 c7 -19 38 -22 38 -4 0 10 -9 16 -21 16 -12 0 -19 -5 -17
-12z"/>
<path d="M3546 2123 c-4 -10 1 -25 14 -37 l20 -20 0 21 c0 46 -22 69 -34 36z"/>
<path d="M3266 2027 c-15 -19 -26 -39 -26 -46 0 -6 -19 -33 -42 -59 l-43 -47
60 54 c33 30 62 56 65 58 2 2 -4 1 -14 -3 -16 -6 -17 -4 -7 12 6 10 18 29 27
42 26 35 8 26 -20 -11z"/>
<path d="M3350 2000 c0 -5 5 -10 11 -10 5 0 7 5 4 10 -3 6 -8 10 -11 10 -2 0
-4 -4 -4 -10z"/>
<path d="M1584 1999 c-19 -22 -19 -22 6 -14 14 4 32 13 40 21 12 12 12 14 -6
14 -12 0 -29 -10 -40 -21z"/>
<path d="M1045 1920 c3 -5 16 -10 28 -10 18 0 19 2 7 10 -20 13 -43 13 -35 0z"/>
<path d="M1162 1843 c4 -22 48 -31 48 -10 0 14 -20 27 -42 27 -5 0 -8 -8 -6
-17z"/>
<path d="M2030 1751 c0 -10 29 -36 34 -30 1 2 -6 12 -16 22 -10 9 -18 13 -18
8z"/>
<path d="M2360 1695 c13 -14 26 -23 28 -20 7 7 -29 45 -41 45 -6 0 0 -11 13
-25z"/>
<path d="M2650 4786 c0 -8 5 -18 10 -21 6 -3 10 1 10 9 0 8 -4 18 -10 21 -5 3
-10 -1 -10 -9z"/>
<path d="M2755 4774 c-25 -25 -15 -58 18 -62 31 -4 43 14 33 53 -7 29 -27 32
-51 9z"/>
<path d="M2086 4771 c-12 -18 5 -62 23 -59 22 4 22 62 -1 66 -9 2 -19 -1 -22
-7z"/>
<path d="M2532 4768 c-18 -18 -15 -53 7 -72 17 -16 19 -15 31 13 20 50 -6 91
-38 59z"/>
<path d="M2456 4754 c-19 -48 9 -99 40 -73 10 8 13 21 9 38 -12 47 -37 65 -49
35z"/>
<path d="M3145 4731 c-8 -15 3 -31 21 -31 9 0 14 7 12 17 -4 20 -24 28 -33 14z"/>
<path d="M2210 4721 c0 -6 5 -13 10 -16 6 -3 10 1 10 9 0 9 -4 16 -10 16 -5 0
-10 -4 -10 -9z"/>
<path d="M2676 4715 c-9 -25 -7 -53 5 -61 15 -9 27 6 31 41 3 33 -25 49 -36
20z"/>
<path d="M3104 4675 c-11 -36 -7 -44 14 -23 13 13 17 58 4 58 -4 0 -12 -16
-18 -35z"/>
<path d="M2056 4685 c-22 -22 -21 -24 20 -41 44 -18 50 -14 32 22 -16 34 -31
40 -52 19z"/>
<path d="M2714 4658 c-5 -16 -1 -27 16 -40 27 -22 34 -22 50 -3 10 12 9 20 -4
40 -20 31 -52 33 -62 3z"/>
<path d="M2187 4644 c-14 -15 -6 -54 17 -81 l24 -28 8 29 c10 42 -26 102 -49
80z"/>
<path d="M2517 4644 c-8 -8 1 -24 14 -24 5 0 9 7 9 15 0 15 -12 20 -23 9z"/>
<path d="M3337 4628 c-7 -24 8 -48 29 -48 15 0 18 27 8 54 -9 23 -31 20 -37
-6z"/>
<path d="M2606 4601 c-10 -11 -16 -35 -16 -62 l1 -44 24 28 c25 28 34 80 16
91 -4 3 -16 -3 -25 -13z"/>
<path d="M1890 4585 c0 -28 15 -34 24 -9 10 25 7 34 -9 34 -9 0 -15 -9 -15
-25z"/>
<path d="M1850 4587 c0 -23 18 -57 30 -57 16 0 11 26 -10 51 -17 21 -19 22
-20 6z"/>
<path d="M3547 4580 c-4 -14 -6 -36 -6 -50 1 -18 4 -14 10 14 10 44 6 75 -4
36z"/>
<path d="M3470 4575 c-17 -21 -8 -50 18 -53 23 -4 29 17 16 52 -8 20 -18 20
-34 1z"/>
<path d="M2286 4571 c-4 -6 3 -15 14 -21 23 -12 27 2 6 19 -9 8 -16 8 -20 2z"/>
<path d="M2670 4566 c0 -8 5 -18 10 -21 6 -3 10 1 10 9 0 8 -4 18 -10 21 -5 3
-10 -1 -10 -9z"/>
<path d="M3075 4560 c-10 -11 -16 -22 -14 -25 7 -6 49 24 49 36 0 15 -16 10
-35 -11z"/>
<path d="M1550 4536 c0 -31 37 -56 51 -35 10 17 -12 53 -35 57 -11 3 -16 -4
-16 -22z"/>
<path d="M1966 4514 c-7 -25 -8 -26 -26 -9 -11 10 -20 14 -20 9 1 -14 26 -44
37 -44 10 0 33 43 33 60 0 21 -18 9 -24 -16z"/>
<path d="M2876 4515 c-4 -16 -13 -33 -19 -37 -9 -5 -9 -10 0 -19 10 -10 15 -6
23 16 6 16 9 38 8 49 -3 17 -5 15 -12 -9z"/>
<path d="M2514 4505 c-9 -22 5 -38 22 -24 18 15 18 25 -1 33 -9 3 -18 -1 -21
-9z"/>
<path d="M1410 4496 c0 -15 18 -31 26 -23 7 7 -7 37 -17 37 -5 0 -9 -6 -9 -14z"/>
<path d="M3072 4470 c0 -19 2 -27 5 -17 2 9 2 25 0 35 -3 9 -5 1 -5 -18z"/>
<path d="M1515 4460 c-10 -16 6 -60 25 -70 49 -26 67 6 29 54 -21 27 -43 34
-54 16z"/>
<path d="M1325 4449 c-7 -11 22 -49 37 -49 5 0 39 -25 74 -55 69 -59 109 -75
82 -32 -9 12 -26 24 -39 25 -39 6 -47 19 -41 69 4 34 2 44 -7 39 -8 -5 -10
-19 -6 -37 9 -40 -7 -37 -48 11 -36 43 -42 46 -52 29z"/>
<path d="M2230 4431 c0 -25 6 -27 13 -6 4 8 2 17 -3 20 -6 4 -10 -3 -10 -14z"/>
<path d="M2833 4400 c0 -38 -6 -65 -18 -85 l-19 -30 22 19 c27 23 38 77 24
119 -9 30 -10 28 -9 -23z"/>
<path d="M2881 4433 c1 -10 4 -29 9 -43 6 -22 8 -23 15 -7 9 21 -2 67 -15 67
-6 0 -10 -8 -9 -17z"/>
<path d="M2650 4421 c-17 -14 -20 -20 -10 -21 22 0 43 16 38 30 -2 8 -11 5
-28 -9z"/>
<path d="M3722 4418 c-27 -27 -3 -122 26 -104 20 12 13 116 -7 116 -4 0 -12
-5 -19 -12z"/>
<path d="M3780 4401 c-15 -37 -6 -55 19 -41 22 11 32 35 25 55 -10 24 -31 17
-44 -14z"/>
<path d="M3340 4396 c-5 -13 -6 -33 -3 -45 8 -33 33 -6 33 35 0 39 -16 45 -30
10z"/>
<path d="M1630 4385 c-7 -9 -11 -18 -8 -20 3 -3 11 1 18 10 7 9 11 18 8 20 -3
3 -11 -1 -18 -10z"/>
<path d="M2123 4363 c-7 -15 -13 -33 -13 -41 0 -22 24 -8 34 21 14 38 -5 54
-21 20z"/>
<path d="M2686 4345 c-25 -59 -46 -136 -45 -164 0 -15 8 1 19 39 9 36 25 84
35 108 10 24 15 45 12 48 -3 4 -13 -11 -21 -31z"/>
<path d="M2977 4373 c-10 -16 11 -39 23 -27 8 8 7 14 -4 23 -8 7 -17 8 -19 4z"/>
<path d="M2397 4330 c-9 -15 -17 -36 -17 -47 1 -15 5 -13 25 10 14 15 25 34
25 42 0 26 -16 24 -33 -5z"/>
<path d="M2638 4320 c-3 -19 -9 -44 -12 -55 -4 -11 1 -5 9 14 9 18 15 43 13
55 -3 15 -5 11 -10 -14z"/>
<path d="M3472 4338 c-19 -19 -14 -30 10 -26 13 2 24 11 26 21 4 20 -18 23
-36 5z"/>
<path d="M3587 4344 c-11 -11 3 -24 18 -18 8 4 12 10 9 15 -6 11 -18 12 -27 3z"/>
<path d="M3872 4338 c-14 -14 -16 -74 -2 -83 5 -3 16 5 25 19 27 41 8 95 -23
64z"/>
<path d="M1227 4323 c-12 -11 -8 -20 19 -52 27 -32 22 -37 -20 -21 -14 5 -28
5 -31 1 -3 -5 2 -12 11 -15 18 -7 84 -8 84 -2 0 2 -9 25 -20 50 -19 44 -29 54
-43 39z"/>
<path d="M3790 4310 c0 -5 7 -10 15 -10 8 0 15 5 15 10 0 6 -7 10 -15 10 -8 0
-15 -4 -15 -10z"/>
<path d="M2951 4278 c-1 -20 4 -40 9 -43 12 -7 12 32 0 60 -7 16 -9 13 -9 -17z"/>
<path d="M2153 4245 c0 -22 2 -30 4 -17 2 12 2 30 0 40 -3 9 -5 -1 -4 -23z"/>
<path d="M1047 4264 c-8 -14 8 -37 22 -33 8 3 8 10 -2 23 -8 11 -17 15 -20 10z"/>
<path d="M1640 4251 c0 -12 5 -21 10 -21 6 0 10 6 10 14 0 8 -4 18 -10 21 -5
3 -10 -3 -10 -14z"/>
<path d="M3894 4228 l-17 -33 27 24 c27 25 33 41 16 41 -5 0 -17 -15 -26 -32z"/>
<path d="M3962 4248 c6 -18 28 -21 28 -4 0 9 -7 16 -16 16 -9 0 -14 -5 -12
-12z"/>
<path d="M1337 4234 c-14 -14 -7 -52 15 -79 17 -22 23 -24 30 -12 5 9 3 31 -4
53 -13 37 -28 51 -41 38z"/>
<path d="M1417 4233 c-12 -11 -8 -58 7 -78 12 -16 15 -17 33 -4 19 13 20 16 6
52 -14 35 -31 46 -46 30z"/>
<path d="M1100 4210 c-17 -33 -9 -75 15 -75 17 0 20 7 20 44 0 49 -17 64 -35
31z"/>
<path d="M2685 4210 c-4 -7 1 -21 14 -33 24 -24 27 -14 7 22 -9 17 -15 20 -21
11z"/>
<path d="M4046 4204 c-5 -12 -2 -15 10 -10 8 3 18 6 20 6 2 0 4 5 4 10 0 16
-27 11 -34 -6z"/>
<path d="M990 4200 c0 -5 7 -10 16 -10 8 0 12 5 9 10 -3 6 -10 10 -16 10 -5 0
-9 -4 -9 -10z"/>
<path d="M1836 4185 c4 -8 12 -15 20 -15 8 0 14 7 14 15 0 8 -9 15 -20 15 -13
0 -18 -5 -14 -15z"/>
<path d="M3470 4190 c0 -5 5 -10 11 -10 5 0 7 5 4 10 -3 6 -8 10 -11 10 -2 0
-4 -4 -4 -10z"/>
<path d="M1510 4174 c0 -17 22 -14 28 4 2 7 -3 12 -12 12 -9 0 -16 -7 -16 -16z"/>
<path d="M3877 4174 c-4 -4 -7 -17 -7 -28 0 -19 1 -19 17 -3 12 11 14 20 7 27
-6 6 -13 7 -17 4z"/>
<path d="M3076 4155 c-3 -8 -1 -15 4 -15 6 0 10 7 10 15 0 8 -2 15 -4 15 -2 0
-6 -7 -10 -15z"/>
<path d="M3441 4142 c-12 -23 -2 -60 22 -80 23 -19 30 2 17 46 -16 50 -26 58
-39 34z"/>
<path d="M1404 4127 c14 -44 18 -67 12 -67 -4 0 -25 9 -47 21 -22 11 -46 18
-52 16 -13 -5 89 -57 111 -57 18 0 14 30 -9 70 -11 19 -18 27 -15 17z"/>
<path d="M3757 4123 c-3 -5 -1 -17 4 -28 7 -17 8 -17 8 8 1 27 -4 34 -12 20z"/>
<path d="M1005 4101 c-3 -5 -1 -12 5 -16 5 -3 10 1 10 9 0 18 -6 21 -15 7z"/>
<path d="M1134 4085 c-13 -51 55 -104 71 -55 7 23 -9 56 -35 70 -26 14 -29 13
-36 -15z"/>
<path d="M3881 4074 c-23 -29 -36 -63 -27 -71 9 -10 36 18 57 59 16 31 17 38
5 38 -8 0 -24 -12 -35 -26z"/>
<path d="M4140 4085 c-6 -8 -9 -18 -6 -24 3 -5 -18 -23 -48 -40 -47 -26 -77
-51 -63 -51 10 0 132 72 150 87 9 9 17 22 17 30 0 18 -34 17 -50 -2z"/>
<path d="M900 4055 c0 -20 44 -47 72 -43 l23 3 -27 28 c-29 29 -68 36 -68 12z"/>
<path d="M3751 4057 c-16 -21 -24 -79 -12 -97 8 -12 13 -12 30 4 24 22 27 64
8 90 -12 16 -15 16 -26 3z"/>
<path d="M4180 4040 c-25 -25 -26 -40 -2 -40 21 0 52 29 52 48 0 19 -28 14
-50 -8z"/>
<path d="M3908 3984 c-27 -25 -48 -47 -48 -50 0 -13 42 -1 47 14 4 9 18 32 31
50 33 43 26 40 -30 -14z"/>
<path d="M1635 4010 c3 -5 16 -15 28 -21 22 -12 22 -12 3 10 -19 21 -43 30
-31 11z"/>
<path d="M4221 3996 c-7 -8 -8 -17 -3 -20 6 -3 15 1 21 8 7 8 8 17 3 20 -6 3
-15 -1 -21 -8z"/>
<path d="M871 3947 c-1 -30 6 -62 19 -87 l20 -40 -45 0 c-41 0 -45 -2 -45 -25
0 -30 26 -45 79 -45 35 0 43 -4 56 -31 19 -36 15 -45 -13 -30 -38 20 -37 11 0
-14 36 -24 51 -55 62 -125 2 -15 4 -8 5 16 1 49 -34 155 -84 250 -20 39 -40
94 -45 125 l-8 54 -1 -48z"/>
<path d="M975 3970 c3 -5 8 -10 11 -10 2 0 4 5 4 10 0 6 -5 10 -11 10 -5 0 -7
-4 -4 -10z"/>
<path d="M1017 3973 c-8 -13 2 -43 14 -43 10 0 10 8 0 34 -5 12 -10 16 -14 9z"/>
<path d="M3915 3930 c-3 -5 -1 -10 4 -10 6 0 11 5 11 10 0 6 -2 10 -4 10 -3 0
-8 -4 -11 -10z"/>
<path d="M4114 3904 c-9 -36 12 -56 32 -30 21 29 18 56 -6 56 -13 0 -22 -9
-26 -26z"/>
<path d="M4215 3900 c-32 -34 -23 -40 15 -10 14 11 31 20 38 20 19 0 14 20 -6
20 -10 0 -31 -13 -47 -30z"/>
<path d="M3993 3876 c-15 -13 -25 -27 -21 -31 9 -9 70 26 76 43 6 20 -25 13
-55 -12z"/>
<path d="M4219 3851 c-9 -3 -40 -28 -70 -55 -30 -27 -49 -47 -44 -45 108 47
117 52 132 76 15 23 7 34 -18 24z"/>
<path d="M4327 3822 c-18 -19 -21 -54 -8 -86 7 -17 9 -17 29 9 25 31 30 95 9
95 -8 0 -21 -8 -30 -18z"/>
<path d="M1105 3816 c-20 -15 -20 -15 3 -38 18 -18 33 -23 77 -23 73 0 87 16
41 44 -47 30 -96 36 -121 17z"/>
<path d="M3953 3784 l-28 -25 33 16 c17 8 32 20 32 25 0 15 -6 12 -37 -16z"/>
<path d="M3660 3748 c-24 -29 -50 -61 -58 -70 -8 -10 -11 -18 -5 -18 9 0 86
93 107 128 16 26 -3 10 -44 -40z"/>
<path d="M4393 3765 c-27 -11 -53 -41 -53 -59 0 -3 16 -6 35 -6 37 0 78 33 73
59 -4 20 -18 22 -55 6z"/>
<path d="M650 3750 c0 -5 4 -10 9 -10 6 0 13 5 16 10 3 6 -1 10 -9 10 -9 0
-16 -4 -16 -10z"/>
<path d="M690 3736 c0 -8 5 -18 10 -21 6 -3 10 1 10 9 0 8 -4 18 -10 21 -5 3
-10 -1 -10 -9z"/>
<path d="M1129 3706 c19 -22 101 -79 107 -74 4 4 -68 60 -105 82 -14 8 -14 7
-2 -8z"/>
<path d="M4196 3713 c-12 -12 -6 -33 9 -33 8 0 15 6 15 14 0 17 -14 28 -24 19z"/>
<path d="M637 3703 c-25 -25 22 -83 67 -83 22 0 27 4 22 16 -3 9 -6 20 -6 25
0 9 -58 49 -71 49 -3 0 -9 -3 -12 -7z"/>
<path d="M3664 3659 c-10 -17 13 -36 27 -22 12 12 4 33 -11 33 -5 0 -12 -5
-16 -11z"/>
<path d="M4422 3658 c5 -15 28 -23 28 -10 0 5 -7 13 -16 16 -10 4 -14 1 -12
-6z"/>
<path d="M760 3641 c-23 -44 3 -111 43 -111 44 0 49 65 9 103 -33 32 -38 33
-52 8z"/>
<path d="M4476 3622 c-19 -37 -4 -68 19 -38 17 22 20 66 5 66 -5 0 -16 -13
-24 -28z"/>
<path d="M534 3615 c-8 -20 10 -41 47 -54 27 -9 29 -8 29 14 0 40 -64 73 -76
40z"/>
<path d="M1119 3571 c12 -22 21 -53 22 -68 0 -27 1 -27 10 -5 6 17 4 33 -11
62 -11 21 -25 42 -31 45 -6 4 -1 -11 10 -34z"/>
<path d="M950 3586 c0 -9 5 -16 10 -16 6 0 10 4 10 9 0 6 -4 13 -10 16 -5 3
-10 -1 -10 -9z"/>
<path d="M4516 3544 c-9 -24 -7 -54 4 -54 6 0 10 16 10 35 0 38 -4 44 -14 19z"/>
<path d="M4400 3525 c-16 -19 0 -19 26 0 16 12 16 14 3 15 -9 0 -22 -7 -29
-15z"/>
<path d="M490 3501 c0 -35 18 -68 49 -91 l31 -21 0 36 c0 27 -8 44 -29 66 -34
34 -51 37 -51 10z"/>
<path d="M600 3510 c0 -5 5 -10 10 -10 6 0 10 5 10 10 0 6 -4 10 -10 10 -5 0
-10 -4 -10 -10z"/>
<path d="M4101 3494 c-19 -8 -32 -17 -29 -19 6 -6 69 14 83 26 14 14 -16 10
-54 -7z"/>
<path d="M4617 3488 c-21 -16 -47 -79 -47 -113 0 -22 3 -24 19 -15 42 22 91
140 59 140 -8 0 -22 -6 -31 -12z"/>
<path d="M923 3465 c9 -16 23 -39 32 -50 9 -11 7 -2 -6 20 -27 49 -47 72 -26
30z"/>
<path d="M450 3422 c0 -17 37 -42 63 -42 33 0 35 14 5 34 -24 17 -68 22 -68 8z"/>
<path d="M4425 3399 c-11 -17 1 -21 15 -4 8 9 8 15 2 15 -6 0 -14 -5 -17 -11z"/>
<path d="M4677 3383 c-4 -3 -7 -11 -7 -17 0 -6 5 -5 12 2 6 6 9 14 7 17 -3 3
-9 2 -12 -2z"/>
<path d="M662 3358 c8 -23 50 -38 72 -26 20 11 20 12 -9 24 -39 17 -68 17 -63
2z"/>
<path d="M4621 3249 c-24 -16 -48 -29 -53 -29 -4 0 -8 -5 -8 -10 0 -12 95 34
105 50 14 22 -1 18 -44 -11z"/>
<path d="M654 3235 c-25 -38 -15 -60 26 -60 25 0 36 5 38 18 4 20 -23 67 -38
67 -5 0 -17 -11 -26 -25z"/>
<path d="M745 3246 c-18 -13 -18 -15 -2 -40 11 -17 26 -26 43 -26 22 0 25 4
22 26 -4 37 -38 59 -63 40z"/>
<path d="M3961 3230 c-19 -16 -54 -36 -79 -44 -43 -15 -172 -83 -172 -91 0 -5
226 102 255 121 13 8 26 22 29 30 7 18 7 18 -33 -16z"/>
<path d="M4415 3207 c-4 -10 -5 -21 -1 -24 10 -10 18 4 13 24 -4 17 -4 17 -12
0z"/>
<path d="M4746 3212 c-9 -14 9 -31 23 -23 7 5 10 14 7 20 -8 13 -23 14 -30 3z"/>
<path d="M4137 3204 c-15 -15 -7 -45 11 -42 9 2 17 12 17 22 0 20 -16 31 -28
20z"/>
<path d="M4686 3139 c-17 -14 -26 -30 -26 -50 0 -51 50 -26 65 32 9 36 -7 43
-39 18z"/>
<path d="M4625 3140 c3 -5 8 -10 11 -10 2 0 4 5 4 10 0 6 -5 10 -11 10 -5 0
-7 -4 -4 -10z"/>
<path d="M919 3120 c13 -11 30 -20 39 -20 19 0 15 3 -28 24 l-35 17 24 -21z"/>
<path d="M4548 3106 c-33 -26 -37 -65 -9 -90 17 -16 20 -16 35 -1 16 17 20 66
8 97 -6 15 -10 14 -34 -6z"/>
<path d="M4430 3064 c-12 -19 -20 -38 -17 -41 6 -5 47 55 47 70 0 14 -9 6 -30
-29z"/>
<path d="M4074 3075 c24 -18 49 -20 44 -2 -3 6 -18 13 -34 15 -28 2 -28 2 -10
-13z"/>
<path d="M4718 3069 c-23 -13 -23 -25 1 -32 21 -5 61 17 61 34 0 12 -40 11
-62 -2z"/>
<path d="M475 3030 c-10 -11 -14 -20 -8 -20 5 0 18 9 28 20 10 11 14 20 8 20
-5 0 -18 -9 -28 -20z"/>
<path d="M4622 2994 c-47 -52 -55 -79 -9 -32 26 26 47 50 47 53 0 11 -16 2
-38 -21z"/>
<path d="M470 2985 c12 -15 30 -12 30 6 0 5 -10 9 -21 9 -18 0 -19 -2 -9 -15z"/>
<path d="M4042 2978 c3 -7 17 -15 33 -16 25 -3 27 -2 16 12 -16 19 -55 22 -49
4z"/>
<path d="M4280 2955 c0 -19 5 -35 10 -35 6 0 10 16 10 35 0 19 -4 35 -10 35
-5 0 -10 -16 -10 -35z"/>
<path d="M3760 2965 c-7 -9 -11 -17 -9 -20 3 -2 10 5 17 15 14 24 10 26 -8 5z"/>
<path d="M4170 2948 c-21 -35 -27 -103 -9 -113 5 -4 19 1 30 11 14 13 19 30
19 70 0 65 -13 76 -40 32z"/>
<path d="M4711 2966 c-8 -9 -11 -19 -7 -23 9 -9 29 13 24 27 -2 8 -8 7 -17 -4z"/>
<path d="M655 2955 c30 -24 75 -47 75 -37 0 5 -17 17 -37 27 -52 27 -61 29
-38 10z"/>
<path d="M3870 2945 c0 -8 7 -15 15 -15 8 0 15 7 15 15 0 8 -7 15 -15 15 -8 0
-15 -7 -15 -15z"/>
<path d="M4612 2930 c-19 -31 -13 -47 8 -21 11 13 20 27 20 32 0 16 -15 10
-28 -11z"/>
<path d="M3971 2894 c-50 -57 -56 -97 -13 -92 31 3 45 44 18 54 -13 5 -11 13
15 45 42 54 29 49 -20 -7z"/>
<path d="M510 2901 c0 -11 5 -23 10 -26 6 -3 10 3 10 14 0 11 -4 23 -10 26 -5
3 -10 -3 -10 -14z"/>
<path d="M1368 2881 c18 -17 36 -31 39 -31 4 0 15 -7 25 -17 19 -17 26 -5 6
15 -8 8 -8 15 2 27 8 9 8 15 2 15 -6 0 -14 -4 -17 -10 -4 -6 -22 -2 -48 11
l-42 21 33 -31z"/>
<path d="M645 2880 c-10 -30 46 -127 66 -114 5 3 9 23 9 45 0 29 -7 47 -25 64
-29 30 -42 31 -50 5z"/>
<path d="M4751 2874 c-40 -34 -39 -44 4 -44 26 0 43 7 60 26 14 15 25 31 25
35 0 19 -60 8 -89 -17z"/>
<path d="M1334 2841 c3 -5 15 -7 26 -4 28 7 25 13 -6 13 -14 0 -23 -4 -20 -9z"/>
<path d="M4321 2813 c-15 -12 -20 -24 -16 -36 14 -35 71 -9 63 29 -4 25 -22
27 -47 7z"/>
<path d="M4020 2805 c0 -8 5 -15 10 -15 6 0 10 7 10 15 0 8 -4 15 -10 15 -5 0
-10 -7 -10 -15z"/>
<path d="M352 2735 c3 -16 8 -37 12 -47 6 -14 3 -15 -26 -9 -64 14 -92 -13
-45 -43 24 -16 107 -38 107 -28 0 3 -7 35 -16 71 -17 69 -40 110 -32 56z"/>
<path d="M830 2721 c0 -5 35 -19 78 -32 102 -32 109 -33 97 -21 -14 14 -175
62 -175 53z"/>
<path d="M4743 2715 c-38 -16 -43 -39 -12 -55 28 -15 72 12 67 42 -4 28 -16
30 -55 13z"/>
<path d="M3213 2698 c-18 -11 -33 -24 -33 -29 0 -5 18 3 40 17 58 39 52 49 -7
12z"/>
<path d="M3105 2652 c-80 -93 -106 -132 -99 -143 4 -8 12 -2 22 17 8 16 32 49
52 74 38 47 75 100 69 100 -2 0 -22 -21 -44 -48z"/>
<path d="M470 2643 c1 -19 37 -51 63 -55 33 -6 36 13 7 42 -19 19 -70 28 -70
13z"/>
<path d="M662 2620 c6 -18 23 -37 42 -46 17 -9 57 -41 89 -72 31 -31 57 -51
57 -44 0 12 -157 168 -186 185 -11 6 -11 2 -2 -23z"/>
<path d="M485 2570 c3 -5 14 -10 24 -10 10 0 39 -11 64 -24 31 -15 43 -18 35
-8 -26 31 -140 70 -123 42z"/>
<path d="M390 2471 c0 -12 5 -21 10 -21 6 0 10 6 10 14 0 8 -4 18 -10 21 -5 3
-10 -3 -10 -14z"/>
<path d="M509 2462 c-29 -25 -20 -52 19 -52 32 0 52 16 52 41 0 15 -19 29 -40
29 -4 0 -18 -8 -31 -18z"/>
<path d="M2927 2416 c-58 -35 -58 -41 1 -12 28 14 52 29 52 31 0 10 -16 4 -53
-19z"/>
<path d="M4465 2380 c-8 -13 25 -13 45 0 12 8 9 10 -12 10 -15 0 -30 -4 -33
-10z"/>
<path d="M690 2365 c-10 -12 -16 -13 -27 -4 -18 16 -26 6 -10 -14 11 -15 14
-15 37 3 14 10 22 21 19 25 -3 3 -12 -1 -19 -10z"/>
<path d="M382 2338 c-19 -19 -15 -58 6 -58 25 0 56 35 49 55 -8 18 -38 20 -55
3z"/>
<path d="M4696 2331 c-3 -5 0 -11 7 -13 17 -7 38 2 31 13 -7 12 -31 12 -38 0z"/>
<path d="M4625 2275 c-46 -28 -43 -32 9 -10 20 8 36 20 36 25 0 13 1 14 -45
-15z"/>
<path d="M561 2264 c0 -11 3 -14 6 -6 3 7 2 16 -1 19 -3 4 -6 -2 -5 -13z"/>
<path d="M4393 2238 c-29 -21 -53 -43 -53 -49 0 -13 25 2 75 45 56 49 41 52
-22 4z"/>
<path d="M4740 2230 c-24 -24 -16 -50 14 -50 21 0 52 26 70 58 12 21 -61 15
-84 -8z"/>
<path d="M440 2220 c0 -5 16 -10 36 -10 21 0 33 4 29 10 -3 6 -19 10 -36 10
-16 0 -29 -4 -29 -10z"/>
<path d="M530 2123 c0 -14 42 -50 66 -57 12 -4 31 -3 43 2 l22 8 -23 21 c-24
22 -108 42 -108 26z"/>
<path d="M4450 2071 c-5 -11 -10 -28 -10 -38 1 -16 3 -15 20 6 21 25 26 51 10
51 -5 0 -14 -9 -20 -19z"/>
<path d="M4576 2065 c-3 -8 -3 -22 1 -30 5 -14 7 -14 24 1 19 17 15 44 -6 44
-7 0 -15 -7 -19 -15z"/>
<path d="M520 2048 c0 -21 34 -66 62 -83 25 -15 32 -15 39 -4 5 8 7 20 4 27
-3 8 -5 18 -5 22 0 11 -32 29 -71 40 -19 6 -29 5 -29 -2z"/>
<path d="M4378 2023 c-23 -28 -30 -43 -19 -43 12 0 46 48 39 55 -3 3 -12 -3
-20 -12z"/>
<path d="M4294 1946 c-16 -14 -24 -25 -19 -25 15 -1 61 37 54 44 -4 3 -20 -5
-35 -19z"/>
<path d="M4594 1955 c-16 -13 -17 -16 -4 -25 23 -15 50 -12 57 6 3 9 0 20 -8
25 -19 12 -22 11 -45 -6z"/>
<path d="M3990 1940 c-9 -6 -10 -10 -3 -10 6 0 15 5 18 10 8 12 4 12 -15 0z"/>
<path d="M3746 1923 c-11 -11 -6 -23 9 -23 8 0 15 4 15 9 0 13 -16 22 -24 14z"/>
<path d="M4482 1909 c-48 -19 -2 -49 54 -35 27 7 32 31 8 40 -20 8 -34 7 -62
-5z"/>
<path d="M585 1860 c-3 -5 -15 -10 -26 -10 -10 0 -19 -4 -19 -10 0 -17 36 -11
55 10 10 11 13 20 7 20 -6 0 -14 -4 -17 -10z"/>
<path d="M4370 1831 c0 -13 50 -51 67 -51 19 0 28 27 13 45 -13 16 -80 21 -80
6z"/>
<path d="M1525 1804 l-30 -14 30 6 c31 6 41 11 34 18 -2 2 -17 -2 -34 -10z"/>
<path d="M4469 1754 c-11 -14 -10 -18 6 -31 34 -24 107 5 84 33 -16 19 -74 18
-90 -2z"/>
<path d="M1000 1756 c0 -11 59 -36 85 -36 24 0 34 13 18 23 -13 8 -103 20
-103 13z"/>
<path d="M900 1690 c0 -5 5 -10 10 -10 6 0 10 5 10 10 0 6 -4 10 -10 10 -5 0
-10 -4 -10 -10z"/>
<path d="M1844 1686 c-10 -8 -16 -17 -12 -21 8 -8 48 13 48 25 0 14 -13 12
-36 -4z"/>
<path d="M1927 1693 c-8 -8 -9 -43 -1 -43 16 0 44 23 44 35 0 15 -31 21 -43 8z"/>
<path d="M3123 1653 c9 -2 23 -2 30 0 6 3 -1 5 -18 5 -16 0 -22 -2 -12 -5z"/>
<path d="M929 1621 c-16 -16 -29 -36 -29 -45 0 -26 -62 -87 -110 -109 -40 -18
-42 -21 -21 -25 30 -5 65 21 110 79 18 24 45 47 60 51 32 9 71 43 71 63 0 26
-49 17 -81 -14z"/>
<path d="M3840 1645 c0 -15 18 -40 24 -34 3 3 -1 14 -9 25 -8 10 -14 15 -15 9z"/>
<path d="M3372 1600 c0 -14 2 -19 5 -12 2 6 2 18 0 25 -3 6 -5 1 -5 -13z"/>
<path d="M3584 1605 c-8 -20 13 -45 37 -45 24 0 32 16 19 40 -13 23 -48 27
-56 5z"/>
<path d="M740 1601 c0 -20 46 -41 89 -41 l44 0 -23 25 c-18 19 -34 25 -67 25
-24 0 -43 -4 -43 -9z"/>
<path d="M4190 1595 c7 -9 15 -13 17 -11 7 7 -7 26 -19 26 -6 0 -6 -6 2 -15z"/>
<path d="M4250 1581 c0 -19 52 -71 71 -71 16 0 10 37 -12 64 -24 31 -59 35
-59 7z"/>
<path d="M3800 1581 c0 -5 5 -13 10 -16 6 -3 10 -2 10 4 0 5 -4 13 -10 16 -5
3 -10 2 -10 -4z"/>
<path d="M1730 1562 c0 -18 37 -42 65 -42 23 0 18 16 -11 39 -33 26 -54 27
-54 3z"/>
<path d="M1642 1537 c-26 -28 -28 -59 -6 -78 14 -11 19 -10 35 10 22 27 24 50
6 75 -12 16 -14 16 -35 -7z"/>
<path d="M3078 1506 c15 -30 29 -50 30 -45 5 12 -38 99 -48 99 -5 0 4 -24 18
-54z"/>
<path d="M3735 1540 c-8 -13 4 -32 16 -25 12 8 12 35 0 35 -6 0 -13 -4 -16
-10z"/>
<path d="M2196 1494 c-4 -9 -4 -19 -2 -22 10 -9 36 8 36 23 0 20 -26 19 -34
-1z"/>
<path d="M1992 1474 c-28 -20 -31 -74 -4 -74 25 0 62 41 62 68 0 26 -25 29
-58 6z"/>
<path d="M1328 1406 c-15 -31 -15 -46 2 -46 13 0 30 51 22 66 -6 11 -12 6 -24
-20z"/>
<path d="M880 1390 c-13 -9 -12 -12 4 -25 27 -20 59 -19 80 4 15 17 15 19 1
25 -25 9 -68 7 -85 -4z"/>
<path d="M976 1350 c-37 -41 -45 -60 -25 -60 17 0 79 66 79 84 0 26 -15 19
-54 -24z"/>
</g>
</svg>